# Blender 4.2.16 LTS
# www.blender.org
mtllib keysprayslide.mtl
o RenderMesh_117643139547133
v 0.639068 0.112740 -0.002538
v 0.651595 0.078264 0.020511
v 0.651595 0.078264 -0.020512
v 0.639068 0.112740 0.002538
v -0.368489 0.098302 -0.054790
v -0.368489 0.098302 -0.014640
v -0.360617 0.119505 -0.054790
v -0.360617 0.119505 -0.014640
v -0.376361 0.072000 -0.054790
v -0.368489 0.098302 0.014561
v -0.376361 0.072000 0.054711
v -0.368489 0.098302 0.054711
v -0.360617 0.119505 0.014561
v -0.360617 0.119505 0.054711
v -0.334378 0.119505 -0.054790
v -0.360617 0.119505 -0.054790
v -0.360617 0.119505 -0.014640
v -0.334378 0.119505 -0.014640
v -0.334377 0.119505 0.014561
v -0.360617 0.119505 0.014561
v -0.360617 0.119505 0.054711
v -0.334377 0.119505 0.054711
v 0.639068 0.112740 -0.002538
v 0.596093 0.112740 -0.002538
v 0.596093 0.112740 0.002538
v 0.639068 0.112740 0.002538
v -0.368489 0.098302 -0.014640
v -0.368489 0.098302 0.014561
v -0.326505 0.098302 -0.014640
v -0.326505 0.098302 0.014561
v -0.593358 -0.389541 -0.059168
v -0.625079 -0.339541 0.059168
v -0.625079 -0.339541 -0.059168
v -0.593358 -0.389541 0.059168
v -0.162500 -0.389541 -0.059168
v -0.162500 -0.389541 0.059168
v -0.012500 -0.199541 -0.059168
v -0.012500 -0.199541 0.059168
v 0.037500 -0.199541 -0.059168
v 0.037500 -0.199541 0.059168
v 0.137500 -0.079541 -0.059168
v 0.137500 -0.079541 0.059168
v 0.337500 -0.079541 -0.059168
v 0.337500 -0.079541 0.059168
v 0.437500 -0.169541 -0.059168
v 0.437500 -0.169541 0.059168
v 0.657277 -0.169541 -0.059168
v 0.657277 -0.169541 0.059168
v 0.677883 -0.151223 -0.059168
v 0.677883 -0.151223 0.059168
v 0.677883 -0.099541 -0.059168
v 0.677883 -0.099541 0.059168
v -0.593358 -0.389541 0.059168
v -0.602122 -0.350762 0.074035
v -0.625079 -0.339541 0.059168
v -0.585077 -0.377169 0.074035
v -0.173789 -0.377169 0.074035
v -0.162500 -0.389541 0.059168
v -0.012500 -0.199541 0.059168
v -0.025445 -0.185879 0.074035
v 0.025977 -0.185879 0.074035
v 0.037500 -0.199541 0.059168
v 0.137500 -0.079541 0.059168
v 0.125977 -0.068319 0.074035
v 0.348433 -0.068319 0.074035
v 0.337500 -0.079541 0.059168
v 0.437500 -0.169541 0.059168
v 0.448433 -0.158186 0.074035
v 0.643144 -0.158186 0.074035
v 0.657277 -0.169541 0.059168
v 0.663752 -0.139506 0.074035
v 0.677883 -0.151223 0.059168
v 0.677883 -0.099541 0.059168
v 0.663752 -0.110896 0.074035
v -0.593358 -0.389541 -0.059168
v -0.625079 -0.339541 -0.059168
v -0.602122 -0.350762 -0.074035
v -0.585077 -0.377169 -0.074035
v -0.173789 -0.377169 -0.074035
v -0.162500 -0.389541 -0.059168
v -0.012500 -0.199541 -0.059168
v -0.025445 -0.185879 -0.074035
v 0.025977 -0.185879 -0.074035
v 0.037500 -0.199541 -0.059168
v 0.137500 -0.079541 -0.059168
v 0.125977 -0.068319 -0.074035
v 0.348433 -0.068319 -0.074035
v 0.337500 -0.079541 -0.059168
v 0.437500 -0.169541 -0.059168
v 0.448433 -0.158186 -0.074035
v 0.643144 -0.158186 -0.074035
v 0.657277 -0.169541 -0.059168
v 0.663752 -0.139506 -0.074035
v 0.677883 -0.151223 -0.059168
v 0.677883 -0.099541 -0.059168
v 0.663752 -0.110896 -0.074035
v 0.561034 0.078264 0.020511
v 0.651595 0.078264 0.020511
v 0.596093 0.112740 0.002538
v 0.639068 0.112740 0.002538
v 0.651595 0.078264 -0.020512
v 0.596093 0.112740 -0.002538
v 0.639068 0.112740 -0.002538
v 0.561034 0.078264 -0.020512
v 0.648068 0.071351 0.092446
v 0.398588 0.071308 0.092446
v 0.426101 0.040695 0.092446
v 0.631676 0.040695 0.092446
v 0.396682 -0.004645 0.092446
v 0.658795 0.025374 0.092446
v 0.346740 -0.007972 0.092446
v 0.682500 0.036940 0.092446
v 0.448215 -0.102184 0.092446
v 0.682500 -0.077136 0.092446
v 0.492351 -0.078259 0.092446
v 0.659617 -0.078259 0.092446
v 0.657213 -0.102184 0.092446
v 0.682837 0.036705 -0.092446
v 0.682825 -0.077136 -0.092446
v 0.659093 0.025374 -0.092446
v 0.648450 0.071109 -0.092446
v 0.659892 -0.078259 -0.092446
v 0.631676 0.040695 -0.092446
v 0.657538 -0.102184 -0.092446
v 0.425870 0.040695 -0.092446
v 0.492351 -0.078259 -0.092446
v 0.398679 0.071089 -0.092446
v 0.448215 -0.102184 -0.092446
v 0.396681 -0.004645 -0.092446
v 0.346881 -0.007972 -0.092446
v 0.692500 0.041631 0.079350
v 0.682500 -0.077136 0.092446
v 0.692500 -0.087167 0.079350
v 0.667215 -0.112184 0.079350
v 0.682500 0.036940 0.092446
v 0.657213 -0.102184 0.092446
v 0.648068 0.071351 0.092446
v 0.442500 -0.112184 0.079350
v 0.652500 0.081631 0.079350
v 0.448215 -0.102184 0.092446
v 0.398588 0.071308 0.092446
v 0.346740 -0.007972 0.092446
v 0.392500 0.081631 0.079350
v 0.332500 -0.007972 0.079350
v 0.442500 -0.112184 -0.079350
v 0.657538 -0.102184 -0.092446
v 0.667216 -0.112184 -0.079350
v 0.692500 -0.087167 -0.079350
v 0.448215 -0.102184 -0.092446
v 0.682825 -0.077136 -0.092446
v 0.346881 -0.007972 -0.092446
v 0.692500 0.041631 -0.079350
v 0.332500 -0.007972 -0.079350
v 0.682837 0.036705 -0.092446
v 0.392500 0.081631 -0.079350
v 0.648450 0.071109 -0.092446
v 0.398679 0.071089 -0.092446
v 0.652500 0.081631 -0.079350
v 0.492351 -0.078259 -0.092446
v 0.649538 -0.068259 -0.079350
v 0.659892 -0.078259 -0.092446
v 0.659093 0.025374 -0.092446
v 0.495609 -0.068259 -0.079350
v 0.648848 0.019376 -0.079350
v 0.409940 -0.004645 -0.079350
v 0.631676 0.040695 -0.092446
v 0.396681 -0.004645 -0.092446
v 0.631676 0.030259 -0.079350
v 0.431356 0.030259 -0.079350
v 0.425870 0.040695 -0.092446
v 0.658795 0.025374 0.092446
v 0.649538 -0.068259 0.079350
v 0.659617 -0.078259 0.092446
v 0.492351 -0.078259 0.092446
v 0.648848 0.019376 0.079350
v 0.495609 -0.068259 0.079350
v 0.631676 0.040695 0.092446
v 0.409940 -0.004645 0.079350
v 0.631676 0.030259 0.079350
v 0.396682 -0.004645 0.092446
v 0.431356 0.030259 0.079350
v 0.426101 0.040695 0.092446
v 0.385792 -0.004184 0.075596
v 0.032991 -0.004184 0.075596
v 0.076819 -0.040184 0.075596
v 0.385792 -0.040184 0.075596
v 0.001826 -0.129039 0.075596
v -0.046257 -0.059464 0.075596
v -0.048565 0.067205 0.075596
v -0.068054 -0.093333 0.075596
v -0.100222 -0.002017 0.075596
v -0.054399 -0.129039 0.075596
v -0.458394 -0.002017 0.075596
v -0.146874 -0.093333 0.075596
v -0.535065 0.067205 0.075596
v -0.266121 -0.249048 0.075596
v -0.569368 -0.143897 0.075596
v -0.223185 -0.345184 0.075596
v -0.678957 -0.134092 0.075596
v -0.545960 -0.249048 0.075596
v -0.596078 -0.345184 0.075596
v -0.640080 -0.309180 0.075596
v -0.266121 -0.249048 -0.075596
v -0.054399 -0.129039 -0.075596
v -0.223185 -0.345184 -0.075596
v -0.146874 -0.093333 -0.075596
v -0.068054 -0.093333 -0.075596
v -0.545960 -0.249048 -0.075596
v 0.001826 -0.129039 -0.075596
v -0.596078 -0.345184 -0.075596
v -0.640080 -0.309180 -0.075596
v -0.678957 -0.134092 -0.075596
v -0.569368 -0.143897 -0.075596
v -0.535065 0.067205 -0.075596
v -0.458394 -0.002017 -0.075596
v -0.048565 0.067205 -0.075596
v -0.100222 -0.002017 -0.075596
v -0.046257 -0.059464 -0.075596
v 0.032991 -0.004184 -0.075596
v 0.076819 -0.040184 -0.075596
v 0.385792 -0.004184 -0.075596
v 0.385792 -0.040184 -0.075596
v 0.643144 -0.158186 -0.074035
v 0.663752 -0.110896 -0.074035
v 0.663752 -0.139506 -0.074035
v 0.429393 -0.110896 -0.074035
v 0.448433 -0.158186 -0.074035
v 0.348433 -0.068319 -0.074035
v 0.365833 -0.051101 -0.074035
v 0.125977 -0.068319 -0.074035
v 0.089004 -0.051101 -0.074035
v 0.009323 -0.142776 -0.074035
v 0.025977 -0.185879 -0.074035
v -0.025445 -0.185879 -0.074035
v -0.045823 -0.142776 -0.074035
v -0.211223 -0.350762 -0.074035
v -0.173789 -0.377169 -0.074035
v -0.585077 -0.377169 -0.074035
v -0.602122 -0.350762 -0.074035
v 0.348433 -0.068319 0.074035
v 0.448433 -0.158186 0.074035
v 0.429393 -0.110896 0.074035
v 0.643144 -0.158186 0.074035
v 0.663752 -0.110896 0.074035
v 0.663752 -0.139506 0.074035
v 0.365833 -0.051101 0.074035
v 0.125977 -0.068319 0.074035
v 0.089004 -0.051101 0.074035
v 0.009323 -0.142776 0.074035
v 0.025977 -0.185879 0.074035
v -0.025445 -0.185879 0.074035
v -0.045823 -0.142776 0.074035
v -0.211223 -0.350762 0.074035
v -0.173789 -0.377169 0.074035
v -0.585077 -0.377169 0.074035
v -0.602122 -0.350762 0.074035
v -0.100222 -0.002017 -0.075596
v -0.449079 -0.018363 -0.056666
v -0.458394 -0.002017 -0.075596
v -0.551503 -0.146708 -0.056820
v -0.108183 -0.018402 -0.056641
v -0.569368 -0.143897 -0.075596
v -0.065978 -0.061692 -0.057088
v -0.533613 -0.233603 -0.056996
v -0.046257 -0.059464 -0.075596
v -0.545960 -0.249048 -0.075596
v -0.068054 -0.093333 -0.075596
v -0.266121 -0.249048 -0.075596
v -0.076447 -0.076820 -0.056758
v -0.273628 -0.233106 -0.056608
v -0.146874 -0.093333 -0.075596
v -0.153396 -0.076492 -0.056149
v -0.449079 -0.018363 0.056666
v -0.108183 -0.018402 0.056641
v -0.100222 -0.002017 0.075596
v -0.065978 -0.061692 0.057088
v -0.458394 -0.002017 0.075596
v -0.046257 -0.059464 0.075596
v -0.551503 -0.146708 0.056820
v -0.068054 -0.093333 0.075596
v -0.569368 -0.143897 0.075596
v -0.076447 -0.076820 0.056758
v -0.533613 -0.233603 0.056996
v -0.146874 -0.093333 0.075596
v -0.545960 -0.249048 0.075596
v -0.153396 -0.076492 0.056149
v -0.266121 -0.249048 0.075596
v -0.273628 -0.233106 0.056608
v -0.535065 0.067205 -0.075596
v -0.042500 0.077816 -0.053997
v -0.048565 0.067205 -0.075596
v 0.032991 -0.004184 -0.075596
v -0.542500 0.077816 -0.053997
v 0.037500 0.007816 -0.053997
v -0.692500 -0.132184 -0.053997
v 0.385792 -0.004184 -0.075596
v -0.678957 -0.134092 -0.075596
v 0.385792 0.007816 -0.053997
v -0.640080 -0.309180 -0.075596
v 0.385792 -0.052184 -0.053997
v -0.652500 -0.312184 -0.053997
v 0.385792 -0.040184 -0.075596
v -0.602500 -0.357184 -0.053997
v 0.087500 -0.052184 -0.053997
v -0.596078 -0.345184 -0.075596
v 0.076819 -0.040184 -0.075596
v -0.217862 -0.357184 -0.053997
v 0.001826 -0.129039 -0.075596
v -0.223185 -0.345184 -0.075596
v 0.007500 -0.142184 -0.053997
v -0.052500 -0.142184 -0.053997
v -0.054399 -0.129039 -0.075596
v -0.042500 0.077816 0.053997
v 0.032991 -0.004184 0.075596
v 0.037500 0.007816 0.053997
v -0.048565 0.067205 0.075596
v 0.385792 -0.004184 0.075596
v -0.535065 0.067205 0.075596
v 0.385792 0.007816 0.053997
v -0.542500 0.077816 0.053997
v 0.385792 -0.052184 0.053997
v -0.692500 -0.132184 0.053997
v 0.385792 -0.040184 0.075596
v -0.678957 -0.134092 0.075596
v 0.087500 -0.052184 0.053997
v -0.640080 -0.309180 0.075596
v 0.076819 -0.040184 0.075596
v -0.652500 -0.312184 0.053997
v 0.001826 -0.129039 0.075596
v -0.602500 -0.357184 0.053997
v 0.007500 -0.142184 0.053997
v -0.596078 -0.345184 0.075596
v -0.052500 -0.142184 0.053997
v -0.217862 -0.357184 0.053997
v -0.054399 -0.129039 0.075596
v -0.223185 -0.345184 0.075596
v -0.318634 0.072000 -0.054790
v -0.376361 0.072000 -0.054790
v -0.368489 0.098302 -0.054790
v -0.326505 0.098302 -0.054790
v -0.334378 0.119505 -0.054790
v -0.360617 0.119505 -0.054790
v -0.360617 0.119505 0.054711
v -0.326505 0.098302 0.054711
v -0.334377 0.119505 0.054711
v -0.368489 0.098302 0.054711
v -0.376361 0.072000 0.054711
v -0.318633 0.072000 0.054711
v 0.037500 0.007816 -0.053997
v -0.042500 0.077816 -0.053997
v 0.037500 0.007816 0.053997
v -0.042500 0.077816 0.053997
v 0.385792 0.007816 0.053997
v -0.542500 0.077816 0.053997
v 0.385792 0.007816 -0.053997
v -0.542500 0.077816 -0.053997
v 0.385792 -0.052184 0.053997
v -0.692500 -0.132184 -0.053997
v 0.385792 -0.052184 -0.053997
v -0.692500 -0.132184 0.053997
v 0.087500 -0.052184 0.053997
v -0.652500 -0.312184 -0.053997
v 0.087500 -0.052184 -0.053997
v -0.652500 -0.312184 0.053997
v 0.007500 -0.142184 0.053997
v -0.602500 -0.357184 -0.053997
v 0.007500 -0.142184 -0.053997
v -0.602500 -0.357184 0.053997
v -0.052500 -0.142184 0.053997
v -0.217862 -0.357184 0.053997
v -0.052500 -0.142184 -0.053997
v -0.217862 -0.357184 -0.053997
v 0.495609 -0.068259 -0.079350
v 0.649538 -0.068259 0.079350
v 0.649538 -0.068259 -0.079350
v 0.648848 0.019376 -0.079350
v 0.495609 -0.068259 0.079350
v 0.648848 0.019376 0.079350
v 0.409940 -0.004645 -0.079350
v 0.631676 0.030259 -0.079350
v 0.409940 -0.004645 0.079350
v 0.631676 0.030259 0.079350
v 0.431356 0.030259 -0.079350
v 0.431356 0.030259 0.079350
v -0.368489 0.098302 -0.014640
v -0.334378 0.119505 -0.014640
v -0.360617 0.119505 -0.014640
v -0.326505 0.098302 -0.014640
v -0.334377 0.119505 0.014561
v -0.326505 0.098302 0.014561
v -0.360617 0.119505 0.014561
v -0.368489 0.098302 0.014561
v -0.045823 -0.142776 -0.074035
v 0.002070 -0.129958 -0.059168
v 0.009323 -0.142776 -0.074035
v 0.089004 -0.051101 -0.074035
v -0.057100 -0.129958 -0.059168
v 0.077500 -0.039541 -0.059168
v -0.222500 -0.339541 -0.059168
v 0.365833 -0.051101 -0.074035
v -0.211223 -0.350762 -0.074035
v -0.602122 -0.350762 -0.074035
v -0.625079 -0.339541 -0.059168
v 0.377500 -0.039541 -0.059168
v 0.437500 -0.099541 -0.059168
v 0.429393 -0.110896 -0.074035
v 0.663752 -0.110896 -0.074035
v 0.677883 -0.099541 -0.059168
v -0.222500 -0.339541 0.059168
v -0.045823 -0.142776 0.074035
v -0.057100 -0.129958 0.059168
v 0.002070 -0.129958 0.059168
v -0.211223 -0.350762 0.074035
v -0.602122 -0.350762 0.074035
v -0.625079 -0.339541 0.059168
v 0.009323 -0.142776 0.074035
v 0.089004 -0.051101 0.074035
v 0.077500 -0.039541 0.059168
v 0.365833 -0.051101 0.074035
v 0.377500 -0.039541 0.059168
v 0.437500 -0.099541 0.059168
v 0.429393 -0.110896 0.074035
v 0.663752 -0.110896 0.074035
v 0.677883 -0.099541 0.059168
v 0.392500 0.081631 -0.079350
v 0.652500 0.081631 0.079350
v 0.652500 0.081631 -0.079350
v 0.692500 0.041631 0.079350
v 0.392500 0.081631 0.079350
v 0.692500 0.041631 -0.079350
v 0.332500 -0.007972 -0.079350
v 0.692500 -0.087167 0.079350
v 0.332500 -0.007972 0.079350
v 0.692500 -0.087167 -0.079350
v 0.442500 -0.112184 0.079350
v 0.667216 -0.112184 -0.079350
v 0.442500 -0.112184 -0.079350
v 0.667215 -0.112184 0.079350
v -0.222500 -0.339541 -0.059168
v -0.057100 -0.129958 0.059168
v -0.057100 -0.129958 -0.059168
v 0.002070 -0.129958 0.059168
v -0.222500 -0.339541 0.059168
v -0.625079 -0.339541 -0.059168
v -0.625079 -0.339541 0.059168
v 0.002070 -0.129958 -0.059168
v 0.077500 -0.039541 0.059168
v 0.077500 -0.039541 -0.059168
v 0.377500 -0.039541 -0.059168
v 0.377500 -0.039541 0.059168
v 0.437500 -0.099541 0.059168
v 0.437500 -0.099541 -0.059168
v 0.677883 -0.099541 0.059168
v 0.677883 -0.099541 -0.059168
v -0.318634 0.072000 -0.054790
v -0.376361 0.072000 0.054711
v -0.376361 0.072000 -0.054790
v -0.318633 0.072000 0.054711
v 0.561034 0.078264 -0.020512
v 0.651595 0.078264 -0.020512
v 0.651595 0.078264 0.020511
v 0.561034 0.078264 0.020511
v 0.596093 0.112740 -0.002538
v 0.561034 0.078264 -0.020512
v 0.561034 0.078264 0.020511
v 0.596093 0.112740 0.002538
v -0.334377 0.119505 0.054711
v -0.326505 0.098302 0.014561
v -0.334377 0.119505 0.014561
v -0.326505 0.098302 0.054711
v -0.318633 0.072000 0.054711
v -0.318634 0.072000 -0.054790
v -0.326505 0.098302 -0.014640
v -0.326505 0.098302 -0.054790
v -0.334378 0.119505 -0.014640
v -0.334378 0.119505 -0.054790
v -0.108183 -0.018402 0.056641
v -0.449079 -0.018363 -0.056666
v -0.108183 -0.018402 -0.056641
v -0.449079 -0.018363 0.056666
v -0.065978 -0.061692 0.057088
v -0.551503 -0.146708 0.056820
v -0.065978 -0.061692 -0.057088
v -0.551503 -0.146708 -0.056820
v -0.076447 -0.076820 0.056758
v -0.533613 -0.233603 -0.056996
v -0.076447 -0.076820 -0.056758
v -0.533613 -0.233603 0.056996
v -0.153396 -0.076492 -0.056149
v -0.273628 -0.233106 -0.056608
v -0.153396 -0.076492 0.056149
v -0.273628 -0.233106 0.056608
vn 0.9398 0.3416 0.0005
vn -0.9481 0.3180 0.0005
vn -0.9516 0.3074 0.0005
vn -0.9374 0.3483 0.0005
vn -0.9374 0.3482 0.0003
vn -0.9580 0.2867 -0.0000
vn -0.9375 0.3481 -0.0000
vn -0.9374 0.3484 0.0006
vn -0.0003 1.0000 0.0004
vn -0.1479 -0.9890 0.0005
vn -0.8444 -0.5358 0.0006
vn -0.8443 -0.5358 0.0007
vn -0.1479 -0.9890 0.0004
vn 0.1442 -0.9896 0.0005
vn 0.1441 -0.9896 0.0006
vn 0.1441 -0.9896 0.0005
vn 0.1441 -0.9896 -0.0000
vn 0.1441 -0.9896 0.0004
vn 0.1442 -0.9896 -0.0000
vn 0.1432 -0.9897 0.0005
vn 0.1432 -0.9897 0.0006
vn 0.1432 -0.9897 -0.0000
vn -0.1372 -0.9905 0.0005
vn -0.1371 -0.9906 -0.0000
vn -0.1372 -0.9905 -0.0000
vn 0.1373 -0.9905 0.0005
vn 0.8733 -0.4872 0.0005
vn 0.8733 -0.4872 0.0004
vn 1.0000 0.0005 0.0005
vn -0.0844 -0.7430 0.6639
vn -0.6248 -0.3981 0.6717
vn -0.1940 -0.6996 0.6877
vn -0.0845 -0.7430 0.6639
vn 0.1745 -0.6789 0.7132
vn -0.1939 -0.6995 0.6878
vn 0.0826 -0.7301 0.6783
vn 0.1745 -0.6790 0.7131
vn 0.1765 -0.6522 0.7372
vn 0.1746 -0.6789 0.7132
vn 0.1764 -0.6522 0.7372
vn 0.0797 -0.7019 0.7078
vn 0.1774 -0.6593 0.7306
vn 0.0796 -0.7019 0.7078
vn 0.0787 -0.7059 0.7039
vn 0.1696 -0.7127 0.6806
vn 0.1775 -0.6593 0.7306
vn 0.1696 -0.7128 0.6805
vn 0.0865 -0.7584 0.6461
vn -0.0844 -0.7643 0.6393
vn 0.0864 -0.7584 0.6460
vn -0.1607 -0.7266 0.6680
vn -0.0844 -0.7612 0.6430
vn -0.0845 -0.7643 0.6393
vn -0.1608 -0.7266 0.6680
vn -0.0845 -0.7612 0.6430
vn -0.1617 -0.7237 0.6709
vn 0.1529 -0.7085 0.6890
vn 0.0845 -0.7508 0.6551
vn 0.0846 -0.7508 0.6551
vn 0.6398 -0.1794 0.7473
vn 0.4899 -0.3990 0.7751
vn 0.7246 0.0003 0.6892
vn 0.6398 -0.1793 0.7473
vn -0.0844 -0.7432 -0.6638
vn -0.6248 -0.3981 -0.6717
vn -0.0845 -0.7430 -0.6639
vn -0.1940 -0.6995 -0.6878
vn 0.1745 -0.6790 -0.7131
vn -0.1939 -0.6995 -0.6878
vn 0.0826 -0.7301 -0.6783
vn 0.1765 -0.6522 -0.7372
vn 0.1746 -0.6789 -0.7132
vn 0.0797 -0.7019 -0.7078
vn 0.1757 -0.6514 -0.7381
vn 0.1774 -0.6593 -0.7306
vn 0.1764 -0.6522 -0.7372
vn 0.0796 -0.7019 -0.7078
vn 0.0787 -0.7059 -0.7039
vn 0.1696 -0.7127 -0.6806
vn 0.1775 -0.6593 -0.7306
vn 0.1776 -0.6593 -0.7306
vn 0.0864 -0.7584 -0.6461
vn 0.1697 -0.7127 -0.6806
vn -0.0844 -0.7643 -0.6393
vn 0.1696 -0.7128 -0.6805
vn 0.0864 -0.7584 -0.6460
vn -0.1607 -0.7266 -0.6680
vn -0.0845 -0.7643 -0.6393
vn -0.0844 -0.7612 -0.6430
vn -0.1608 -0.7266 -0.6680
vn -0.0845 -0.7612 -0.6430
vn -0.1617 -0.7237 -0.6709
vn 0.1529 -0.7085 -0.6890
vn 0.0845 -0.7508 -0.6551
vn 0.1529 -0.7084 -0.6890
vn 0.6398 -0.1794 -0.7473
vn 0.0846 -0.7508 -0.6551
vn 0.4899 -0.3990 -0.7751
vn 0.6398 -0.1793 -0.7473
vn 0.7246 0.0003 -0.6892
vn -0.0000 0.4623 0.8867
vn -0.0000 0.4623 -0.8867
vn -0.0003 0.0004 1.0000
vn -0.0003 0.0005 1.0000
vn -0.0003 0.0003 1.0000
vn -0.0004 0.0004 -1.0000
vn -0.0003 0.0004 -1.0000
vn -0.0003 0.0005 -1.0000
vn 0.6502 0.4059 0.6423
vn 0.7087 -0.1831 0.6813
vn 0.5495 -0.4059 0.7303
vn 0.7087 -0.1832 0.6813
vn 0.0855 -0.7593 0.6451
vn 0.5496 -0.4059 0.7302
vn 0.7190 0.2624 0.6436
vn 0.7087 -0.1833 0.6813
vn 0.1647 -0.7195 0.6746
vn 0.6501 0.4060 0.6423
vn 0.1823 0.7419 0.6452
vn 0.7189 0.2625 0.6436
vn -0.0844 -0.7771 0.6237
vn 0.1647 -0.7196 0.6746
vn 0.1824 0.7419 0.6452
vn 0.0826 0.7693 0.6335
vn -0.1763 -0.7508 0.6365
vn -0.1938 0.7196 0.6668
vn 0.1821 0.7420 0.6452
vn -0.6659 -0.1324 0.7342
vn -0.0845 -0.7771 0.6237
vn -0.1765 -0.7508 0.6365
vn -0.0864 0.7606 0.6434
vn -0.1939 0.7196 0.6668
vn -0.0863 0.7607 0.6433
vn -0.6658 -0.1324 0.7343
vn -0.6668 -0.1275 0.7343
vn -0.6669 -0.1275 0.7342
vn -0.0844 -0.7771 -0.6237
vn 0.1656 -0.7209 -0.6730
vn 0.0855 -0.7607 -0.6434
vn 0.1657 -0.7208 -0.6730
vn 0.5548 -0.4101 -0.7239
vn -0.1761 -0.7509 -0.6365
vn 0.7175 -0.1851 -0.6715
vn -0.0845 -0.7771 -0.6237
vn -0.6628 -0.1314 -0.7371
vn -0.1763 -0.7508 -0.6366
vn 0.6522 0.4118 -0.6364
vn -0.6633 -0.1266 -0.7376
vn 0.6522 0.4118 -0.6365
vn 0.7274 0.2613 -0.6345
vn -0.0854 0.7544 -0.6509
vn -0.6629 -0.1314 -0.7371
vn 0.1842 0.7371 -0.6501
vn 0.6521 0.4119 -0.6365
vn 0.7273 0.2615 -0.6345
vn -0.0854 0.7544 -0.6508
vn -0.1939 0.7130 -0.6738
vn 0.6521 0.4118 -0.6365
vn 0.1843 0.7371 -0.6502
vn 0.0816 0.7646 -0.6394
vn 0.0816 0.7645 -0.6394
vn 0.1842 0.7371 -0.6502
vn 0.0816 0.7872 -0.6113
vn -0.2173 0.6853 -0.6951
vn -0.0962 0.7528 -0.6512
vn -0.5203 -0.5714 -0.6347
vn -0.2173 0.6854 -0.6950
vn 0.1725 0.7724 -0.6112
vn -0.5203 -0.5713 -0.6347
vn -0.6540 -0.3717 -0.6589
vn 0.0817 0.7872 -0.6113
vn 0.6710 0.2292 -0.7051
vn 0.1728 0.7724 -0.6112
vn -0.0738 -0.7764 -0.6259
vn -0.5202 -0.5713 -0.6348
vn -0.6539 -0.3717 -0.6589
vn 0.6731 0.2195 -0.7062
vn -0.0737 -0.7764 -0.6259
vn -0.1600 -0.7640 -0.6251
vn 0.6731 0.2195 -0.7063
vn 0.1979 -0.7195 -0.6657
vn 0.1978 -0.7195 -0.6657
vn -0.1597 -0.7640 -0.6252
vn 0.6730 0.2196 -0.7063
vn 0.0854 -0.7594 -0.6450
vn 0.0855 -0.7593 -0.6451
vn -0.5249 -0.5729 0.6295
vn -0.2193 0.6865 0.6933
vn -0.0963 0.7542 0.6496
vn -0.2192 0.6865 0.6933
vn 0.0816 0.7872 0.6113
vn -0.0962 0.7542 0.6496
vn -0.6600 -0.3728 0.6522
vn 0.1725 0.7724 0.6112
vn -0.0747 -0.7763 0.6259
vn -0.6600 -0.3728 0.6523
vn 0.6727 0.2281 0.7039
vn 0.0817 0.7872 0.6113
vn 0.1728 0.7724 0.6112
vn -0.0747 -0.7764 0.6258
vn -0.1609 -0.7647 0.6240
vn 0.6745 0.2193 0.7049
vn 0.1987 -0.7208 0.6640
vn -0.1607 -0.7647 0.6240
vn 0.1989 -0.7207 0.6641
vn 0.6746 0.2193 0.7048
vn 0.6727 0.2282 0.7039
vn 0.0855 -0.7598 0.6445
vn 0.6746 0.2194 0.7048
vn 0.1989 -0.7208 0.6640
vn -0.0004 0.0004 1.0000
vn -0.0005 0.0006 -1.0000
vn -0.0004 0.0005 -1.0000
vn -0.0005 0.0006 1.0000
vn -0.0004 0.0005 1.0000
vn -0.0795 -0.7387 -0.6693
vn 0.1900 -0.7001 -0.6883
vn 0.0816 -0.7363 -0.6718
vn 0.7024 -0.1599 -0.6936
vn 0.0816 -0.7362 -0.6718
vn 0.1901 -0.7001 -0.6883
vn -0.0795 -0.7387 -0.6694
vn -0.1841 -0.7071 -0.6827
vn 0.0816 -0.7363 -0.6717
vn 0.7024 -0.1601 -0.6936
vn 0.6836 -0.2312 -0.6923
vn -0.6733 -0.0474 -0.7378
vn -0.1842 -0.7071 -0.6827
vn 0.2116 0.6719 -0.7097
vn 0.6836 -0.2311 -0.6923
vn 0.7025 -0.1596 -0.6935
vn -0.6607 -0.1431 -0.7369
vn 0.6836 -0.2310 -0.6924
vn 0.2116 0.6718 -0.7099
vn 0.0884 0.7330 -0.6744
vn -0.0825 0.7334 -0.6747
vn -0.0825 0.7491 -0.6573
vn -0.6733 -0.0473 -0.7378
vn -0.0825 0.7334 -0.6748
vn -0.1958 0.6959 -0.6910
vn -0.1959 0.7150 -0.6711
vn -0.1977 0.7038 -0.6823
vn -0.1957 0.6959 -0.6910
vn -0.1978 0.7038 -0.6823
vn -0.0824 0.7491 -0.6573
vn -0.1959 0.7151 -0.6710
vn -0.1949 0.6944 -0.6927
vn -0.0835 0.7366 -0.6711
vn -0.1960 0.7151 -0.6710
vn 0.1900 -0.7001 0.6883
vn -0.1841 -0.7071 0.6827
vn -0.0795 -0.7387 0.6693
vn -0.6733 -0.0474 0.7378
vn -0.0795 -0.7387 0.6694
vn -0.1842 -0.7071 0.6827
vn 0.1901 -0.7001 0.6883
vn 0.0816 -0.7363 0.6718
vn -0.0795 -0.7386 0.6694
vn -0.6607 -0.1431 0.7369
vn 0.7024 -0.1599 0.6936
vn 0.1901 -0.7000 0.6883
vn 0.0816 -0.7363 0.6717
vn -0.0825 0.7334 0.6747
vn 0.6836 -0.2312 0.6923
vn 0.7024 -0.1601 0.6936
vn -0.6733 -0.0473 0.7378
vn -0.1958 0.6959 0.6910
vn -0.0825 0.7334 0.6748
vn 0.2116 0.6718 0.7099
vn 0.7024 -0.1598 0.6936
vn 0.6836 -0.2311 0.6923
vn -0.1977 0.7038 0.6823
vn 0.0884 0.7331 0.6744
vn -0.1957 0.6959 0.6910
vn -0.0835 0.7366 0.6711
vn -0.0825 0.7491 0.6573
vn 0.0884 0.7330 0.6744
vn -0.1960 0.7150 0.6711
vn -0.1978 0.7038 0.6823
vn -0.0834 0.7367 0.6711
vn -0.1957 0.7151 0.6711
vn -0.1959 0.7150 0.6711
vn -0.0825 0.7492 0.6571
vn -0.1821 0.8564 -0.4831
vn 0.0991 0.8820 -0.4608
vn 0.1666 0.8654 -0.4725
vn 0.0944 0.8615 -0.4989
vn 0.1667 0.8654 -0.4725
vn 0.0992 0.8820 -0.4608
vn -0.1049 0.8778 -0.4674
vn 0.0992 0.8820 -0.4607
vn 0.1725 0.8454 -0.5055
vn -0.8163 0.2252 -0.5320
vn -0.1050 0.8778 -0.4674
vn 0.2408 0.8484 -0.4714
vn 0.0943 0.8615 -0.4989
vn 0.1724 0.8454 -0.5055
vn -0.1821 0.8565 -0.4830
vn -0.8265 0.1763 -0.5346
vn -0.8162 0.2253 -0.5320
vn 0.1080 0.8689 -0.4831
vn -0.7235 -0.4615 -0.5134
vn -0.8265 0.1762 -0.5346
vn 0.1077 -0.8689 -0.4831
vn 0.2408 0.8484 -0.4713
vn 0.1077 0.8690 -0.4830
vn -0.7234 -0.4616 -0.5134
vn -0.6941 -0.5095 -0.5085
vn 0.1077 -0.8690 -0.4830
vn 0.2408 -0.8484 -0.4713
vn -0.7234 -0.4617 -0.5134
vn -0.0952 -0.8621 -0.4977
vn -0.6941 -0.5096 -0.5085
vn 0.1754 -0.8290 -0.5310
vn 0.2408 -0.8484 -0.4714
vn 0.1080 -0.8689 -0.4831
vn -0.1705 -0.8468 -0.5038
vn 0.1002 -0.8523 -0.5133
vn -0.1704 -0.8468 -0.5038
vn 0.0992 -0.8615 -0.4979
vn 0.1833 -0.8097 -0.5575
vn 0.1001 -0.8523 -0.5134
vn 0.1882 -0.8430 -0.5039
vn 0.0943 -0.8351 -0.5419
vn 0.1958 -0.8246 -0.5307
vn 0.0992 -0.8615 -0.4980
vn 0.1882 -0.8432 -0.5037
vn 0.0944 -0.8351 -0.5419
vn 0.0943 -0.8441 -0.5278
vn 0.0992 0.8820 0.4607
vn 0.0943 0.8615 0.4989
vn 0.1725 0.8454 0.5055
vn 0.0944 0.8615 0.4989
vn 0.1667 0.8654 0.4725
vn 0.2408 0.8485 0.4713
vn 0.1724 0.8454 0.5055
vn 0.0990 0.8820 0.4608
vn -0.1821 0.8564 0.4831
vn 0.1080 0.8689 0.4831
vn 0.0991 0.8820 0.4608
vn -0.1049 0.8778 0.4674
vn 0.1077 -0.8690 0.4830
vn 0.1077 0.8689 0.4831
vn 0.2408 0.8484 0.4713
vn -0.8163 0.2252 0.5320
vn -0.1820 0.8565 0.4831
vn -0.1049 0.8778 0.4673
vn 0.1077 -0.8689 0.4831
vn 0.2408 0.8484 0.4714
vn 0.2408 -0.8484 0.4713
vn -0.1821 0.8564 0.4832
vn -0.8162 0.2253 0.5320
vn -0.8265 0.1763 0.5346
vn 0.1754 -0.8290 0.5310
vn 0.1080 -0.8689 0.4831
vn 0.2408 -0.8485 0.4713
vn -0.7235 -0.4615 0.5134
vn -0.8265 0.1762 0.5346
vn 0.2408 -0.8484 0.4714
vn 0.1002 -0.8523 0.5133
vn -0.7234 -0.4616 0.5134
vn -0.8163 0.2252 0.5319
vn -0.6941 -0.5095 0.5085
vn 0.1833 -0.8096 0.5576
vn 0.1001 -0.8524 0.5132
vn -0.0952 -0.8621 0.4977
vn -0.7234 -0.4617 0.5134
vn -0.6941 -0.5096 0.5085
vn 0.1739 -0.8258 0.5365
vn 0.1833 -0.8097 0.5575
vn 0.0943 -0.8351 0.5419
vn -0.1706 -0.8468 0.5038
vn 0.1958 -0.8246 0.5307
vn 0.0944 -0.8351 0.5419
vn 0.0992 -0.8615 0.4979
vn -0.1704 -0.8468 0.5038
vn 0.0943 -0.8441 0.5278
vn 0.1882 -0.8430 0.5039
vn 0.1958 -0.8247 0.5306
vn 0.0991 -0.8616 0.4979
vn 0.1882 -0.8431 0.5038
vn 0.0943 -0.8443 0.5276
vn 0.1364 0.9907 -0.0000
vn 0.1364 0.9907 0.0007
vn 0.1364 0.9907 0.0005
vn 0.1364 0.9907 0.0004
vn 0.1362 0.9907 -0.0000
vn 0.1644 0.9864 0.0005
vn 0.1362 0.9907 0.0005
vn -0.1460 0.9893 0.0005
vn 0.1647 0.9863 0.0005
vn 0.1647 -0.9863 0.0005
vn -0.9713 0.2378 0.0005
vn -0.1460 0.9893 -0.0000
vn 0.1647 0.9863 0.0004
vn 0.1644 -0.9864 0.0005
vn 0.1420 -0.9899 0.0005
vn -0.8337 -0.5523 0.0005
vn 0.1420 -0.9899 -0.0000
vn -0.8337 -0.5523 0.0004
vn -0.8335 -0.5525 0.0005
vn 0.1420 -0.9899 0.0002
vn -0.8336 -0.5524 0.0005
vn -0.1372 -0.9905 0.0003
vn 0.1451 -0.9894 0.0005
vn 0.1451 -0.9894 -0.0000
vn 0.1451 -0.9894 0.0003
vn 0.1324 0.9912 0.0005
vn -0.1643 0.9864 0.0005
vn -0.1644 0.9864 -0.0000
vn -0.1646 0.9864 0.0005
vn -0.7886 -0.6149 -0.0000
vn 0.1324 0.9912 -0.0000
vn -0.7886 -0.6149 0.0005
vn -0.1646 0.9864 -0.0000
vn 0.9416 0.3366 0.0005
vn -0.1274 -0.9918 -0.0000
vn 0.9416 0.3366 0.0004
vn 0.9416 0.3366 -0.0000
vn -0.1274 -0.9918 0.0005
vn 0.9416 0.3367 0.0004
vn 0.9416 0.3367 -0.0000
vn 0.1490 -0.9888 0.0005
vn -0.1274 -0.9919 0.0005
vn 0.1490 -0.9888 -0.0000
vn 0.9416 0.3367 0.0005
vn -0.1274 -0.9919 -0.0000
vn -0.1780 0.6785 -0.7127
vn -0.1822 0.6884 -0.7021
vn -0.0796 0.7312 -0.6775
vn -0.1743 0.7175 -0.6744
vn -0.0826 0.7249 -0.6839
vn -0.1743 0.7174 -0.6745
vn -0.0873 0.7574 -0.6471
vn -0.1782 0.6785 -0.7127
vn -0.1734 0.7147 -0.6776
vn -0.0825 0.7249 -0.6839
vn -0.0873 0.7575 -0.6470
vn 0.1666 0.7226 -0.6708
vn -0.1741 0.7175 -0.6744
vn -0.1755 0.7168 -0.6748
vn -0.0874 0.7597 -0.6444
vn -0.0000 0.7982 -0.6024
vn -0.1733 0.7147 -0.6776
vn -0.0873 0.7574 -0.6470
vn 0.0855 0.7584 -0.6461
vn 0.1666 0.7227 -0.6708
vn 0.1685 0.7252 -0.6676
vn 0.1667 0.7226 -0.6709
vn 0.1686 0.7252 -0.6676
vn 0.0836 0.7640 -0.6398
vn -0.0006 0.7946 -0.6071
vn 0.1684 0.7252 -0.6676
vn -0.0000 0.7947 -0.6070
vn -0.1734 0.7147 0.6776
vn -0.1782 0.6785 0.7127
vn -0.0825 0.7249 0.6839
vn -0.1820 0.6884 0.7021
vn -0.0826 0.7249 0.6839
vn -0.1782 0.6785 0.7126
vn -0.0874 0.7597 0.6444
vn -0.0000 0.7982 0.6024
vn -0.1733 0.7147 0.6776
vn -0.0796 0.7312 0.6775
vn -0.1822 0.6884 0.7021
vn -0.1743 0.7175 0.6744
vn -0.1743 0.7174 0.6745
vn -0.0873 0.7574 0.6471
vn 0.1666 0.7226 0.6708
vn -0.0873 0.7574 0.6470
vn 0.1666 0.7227 0.6708
vn 0.0855 0.7584 0.6461
vn 0.1686 0.7252 0.6676
vn 0.1667 0.7226 0.6709
vn 0.0837 0.7640 0.6398
vn -0.0006 0.7946 0.6071
vn 0.1685 0.7252 0.6676
vn 0.0836 0.7640 0.6398
vn -0.0000 0.7947 0.6070
vn -0.1479 0.9890 0.0005
vn 0.1402 0.9901 0.0005
vn 0.8955 0.4451 0.0005
vn 0.1402 0.9901 0.0003
vn -0.9825 -0.1862 0.0005
vn -0.1479 0.9890 0.0004
vn -0.1479 0.9890 0.0007
vn 0.8955 0.4450 0.0005
vn 0.8936 -0.4489 0.0005
vn -0.9825 -0.1862 0.0004
vn -0.9825 -0.1861 0.0007
vn -0.1382 -0.9904 0.0003
vn -0.9825 -0.1861 0.0005
vn 0.8935 -0.4490 0.0005
vn 0.1393 -0.9903 0.0004
vn -0.1382 -0.9904 0.0005
vn -0.1382 -0.9904 0.0002
vn -0.9825 -0.1861 0.0004
vn 0.1393 -0.9903 0.0005
vn 0.8935 -0.4491 0.0005
vn -0.1381 -0.9904 0.0005
vn 0.1390 -0.9903 0.0005
vn -0.1448 0.9895 0.0005
vn -0.1448 0.9895 0.0004
vn -0.1448 0.9895 0.0003
vn -0.1441 0.9896 0.0005
vn -0.1450 0.9894 0.0005
vn -0.1448 0.9895 -0.0000
vn -0.0005 1.0000 0.0006
vn -0.1450 0.9894 -0.0000
vn -0.1441 0.9896 -0.0000
vn -0.1441 0.9896 0.0003
vn 0.1402 0.9901 -0.0000
vn -0.0003 -1.0000 0.0004
vn -0.7012 0.7130 0.0009
vn -0.7012 0.7130 -0.0000
vn 0.9374 0.3482 0.0003
vn 0.9516 0.3074 0.0005
vn 0.9481 0.3180 0.0005
vn 0.9580 0.2867 -0.0000
vn 0.9481 0.3179 0.0005
vn 0.9375 0.3481 -0.0000
vn -0.1411 -0.9900 0.0005
vn -0.1411 -0.9900 -0.0000
vn -0.9901 -0.1402 -0.0044
vn 0.9595 -0.2818 0.0005
vn 0.1442 -0.9896 0.0006
vn -0.9901 -0.1402 0.0004
vn -0.9901 -0.1402 0.0005
vn -0.1411 -0.9900 -0.0045
vn 0.9595 -0.2818 0.0004
vn -0.1477 0.9890 0.0005
vn 0.9595 -0.2817 0.0005
vn 0.1579 0.9874 0.0019
vn 0.1579 0.9874 0.0005
vn 0.9595 -0.2817 0.0009
vn 0.1579 0.9874 0.0004
vn -0.1391 0.9903 0.0005
vn -0.1479 0.9890 0.0012
vn 0.1578 0.9875 0.0005
vn -0.1460 0.9893 -0.0002
vn -0.1458 0.9893 0.0005
vn -0.1392 0.9903 0.0005
vn -0.1392 0.9903 0.0006
vn 0.1578 0.9875 -0.0002
vn -0.1458 0.9893 -0.0016
vt 0.000000 0.000000
s 0
f 1/1/1 2/1/1 3/1/1
f 2/1/1 1/1/1 4/1/1
f 5/1/2 6/1/3 7/1/4
f 7/1/5 6/1/3 8/1/5
f 9/1/6 6/1/3 5/1/2
f 9/1/6 10/1/3 6/1/3
f 9/1/6 11/1/6 10/1/3
f 10/1/3 11/1/6 12/1/2
f 10/1/3 12/1/2 13/1/7
f 13/1/8 12/1/2 14/1/8
f 15/1/9 16/1/9 17/1/9
f 15/1/9 17/1/9 18/1/9
f 19/1/9 20/1/9 21/1/9
f 19/1/9 21/1/9 22/1/9
f 23/1/9 24/1/9 25/1/9
f 23/1/9 25/1/9 26/1/9
f 27/1/9 28/1/9 29/1/9
f 29/1/9 28/1/9 30/1/9
f 31/1/10 32/1/11 33/1/11
f 32/1/12 31/1/10 34/1/13
f 31/1/10 35/1/14 34/1/10
f 36/1/14 34/1/10 35/1/14
f 35/1/15 37/1/16 36/1/16
f 37/1/16 38/1/17 36/1/18
f 38/1/14 37/1/19 39/1/20
f 39/1/20 40/1/20 38/1/14
f 39/1/21 41/1/20 40/1/20
f 41/1/20 42/1/22 40/1/20
f 41/1/22 43/1/23 42/1/20
f 43/1/23 44/1/24 42/1/20
f 43/1/25 45/1/23 44/1/23
f 45/1/23 46/1/23 44/1/23
f 45/1/23 47/1/26 46/1/23
f 48/1/26 46/1/23 47/1/26
f 49/1/27 48/1/26 47/1/26
f 48/1/26 49/1/27 50/1/27
f 50/1/27 49/1/28 51/1/29
f 51/1/29 52/1/29 50/1/27
f 53/1/30 54/1/31 55/1/31
f 54/1/31 53/1/30 56/1/32
f 53/1/33 57/1/34 56/1/35
f 53/1/33 58/1/36 57/1/37
f 59/1/38 57/1/39 58/1/36
f 57/1/39 59/1/40 60/1/41
f 61/1/42 60/1/43 59/1/40
f 59/1/40 62/1/44 61/1/42
f 63/1/45 61/1/46 62/1/44
f 61/1/46 63/1/47 64/1/48
f 65/1/49 64/1/50 63/1/47
f 65/1/49 63/1/47 66/1/51
f 67/1/52 65/1/53 66/1/54
f 65/1/53 67/1/55 68/1/56
f 67/1/52 69/1/57 68/1/56
f 67/1/52 70/1/58 69/1/57
f 70/1/59 71/1/60 69/1/57
f 71/1/60 70/1/59 72/1/61
f 73/1/62 71/1/63 72/1/61
f 71/1/60 73/1/62 74/1/62
f 75/1/64 76/1/65 77/1/65
f 75/1/66 77/1/65 78/1/67
f 79/1/68 75/1/66 78/1/69
f 75/1/66 79/1/68 80/1/70
f 81/1/71 80/1/70 79/1/72
f 79/1/72 82/1/73 81/1/74
f 83/1/75 81/1/76 82/1/77
f 81/1/76 83/1/75 84/1/78
f 85/1/79 84/1/78 83/1/80
f 83/1/81 86/1/82 85/1/83
f 87/1/84 85/1/85 86/1/86
f 85/1/85 87/1/84 88/1/87
f 87/1/88 89/1/89 88/1/90
f 89/1/91 87/1/88 90/1/92
f 91/1/93 89/1/89 90/1/92
f 89/1/89 91/1/93 92/1/94
f 91/1/95 93/1/96 92/1/97
f 92/1/97 93/1/96 94/1/98
f 93/1/99 95/1/100 94/1/98
f 93/1/99 96/1/100 95/1/100
f 97/1/101 98/1/101 99/1/101
f 98/1/101 100/1/101 99/1/101
f 101/1/102 102/1/102 103/1/102
f 102/1/102 101/1/102 104/1/102
f 105/1/103 106/1/103 107/1/103
f 105/1/103 107/1/103 108/1/103
f 106/1/103 109/1/103 107/1/103
f 110/1/103 105/1/103 108/1/103
f 106/1/103 111/1/103 109/1/103
f 105/1/103 110/1/103 112/1/103
f 111/1/104 113/1/104 109/1/104
f 110/1/103 114/1/103 112/1/103
f 115/1/105 109/1/105 113/1/105
f 114/1/103 110/1/103 116/1/103
f 117/1/105 115/1/105 113/1/105
f 117/1/103 114/1/103 116/1/103
f 115/1/103 117/1/103 116/1/103
f 118/1/106 119/1/106 120/1/106
f 120/1/107 121/1/107 118/1/107
f 122/1/107 120/1/107 119/1/107
f 121/1/107 120/1/107 123/1/107
f 119/1/107 124/1/107 122/1/107
f 125/1/106 121/1/106 123/1/106
f 126/1/107 122/1/107 124/1/107
f 121/1/107 125/1/107 127/1/107
f 126/1/106 124/1/106 128/1/106
f 129/1/107 127/1/107 125/1/107
f 128/1/107 129/1/107 126/1/107
f 127/1/108 129/1/108 130/1/108
f 128/1/107 130/1/107 129/1/107
f 131/1/109 132/1/110 133/1/111
f 132/1/112 134/1/113 133/1/114
f 132/1/110 131/1/109 135/1/115
f 134/1/113 132/1/116 136/1/117
f 131/1/118 137/1/119 135/1/120
f 138/1/121 134/1/113 136/1/122
f 137/1/123 131/1/109 139/1/124
f 138/1/121 136/1/122 140/1/125
f 139/1/124 141/1/126 137/1/127
f 142/1/128 138/1/129 140/1/130
f 139/1/124 143/1/131 141/1/132
f 143/1/133 142/1/134 141/1/132
f 138/1/129 142/1/134 144/1/135
f 143/1/133 144/1/136 142/1/134
f 145/1/137 146/1/138 147/1/139
f 146/1/140 148/1/141 147/1/139
f 146/1/138 145/1/137 149/1/142
f 148/1/141 146/1/140 150/1/143
f 145/1/144 151/1/145 149/1/146
f 152/1/147 148/1/141 150/1/143
f 145/1/144 153/1/148 151/1/145
f 152/1/149 150/1/143 154/1/150
f 155/1/151 151/1/152 153/1/148
f 156/1/153 152/1/154 154/1/155
f 151/1/145 155/1/156 157/1/157
f 152/1/158 156/1/159 158/1/160
f 158/1/161 157/1/157 155/1/151
f 157/1/157 158/1/161 156/1/162
f 159/1/163 160/1/164 161/1/165
f 162/1/166 161/1/165 160/1/167
f 160/1/164 159/1/163 163/1/168
f 162/1/169 160/1/164 164/1/170
f 159/1/171 165/1/172 163/1/173
f 166/1/174 162/1/175 164/1/176
f 159/1/171 167/1/177 165/1/172
f 166/1/178 164/1/170 168/1/179
f 167/1/180 169/1/181 165/1/172
f 169/1/182 166/1/178 168/1/183
f 167/1/184 170/1/185 169/1/182
f 166/1/178 169/1/182 170/1/186
f 171/1/187 172/1/188 173/1/189
f 172/1/190 174/1/191 173/1/192
f 172/1/188 171/1/187 175/1/193
f 172/1/190 176/1/194 174/1/191
f 177/1/195 175/1/196 171/1/187
f 178/1/197 174/1/198 176/1/199
f 175/1/193 177/1/200 179/1/201
f 174/1/198 178/1/197 180/1/202
f 181/1/203 179/1/204 177/1/195
f 181/1/205 180/1/206 178/1/207
f 181/1/203 177/1/195 182/1/208
f 180/1/209 181/1/210 182/1/208
f 183/1/104 184/1/104 185/1/104
f 185/1/103 186/1/103 183/1/103
f 184/1/105 187/1/105 185/1/105
f 188/1/103 187/1/103 184/1/103
f 189/1/103 188/1/103 184/1/103
f 190/1/211 187/1/211 188/1/211
f 188/1/103 189/1/103 191/1/103
f 187/1/103 190/1/103 192/1/103
f 189/1/103 193/1/103 191/1/103
f 194/1/103 192/1/103 190/1/103
f 193/1/103 189/1/103 195/1/103
f 192/1/103 194/1/103 196/1/103
f 195/1/103 197/1/103 193/1/103
f 198/1/211 192/1/211 196/1/211
f 197/1/103 195/1/103 199/1/103
f 200/1/103 198/1/103 196/1/103
f 199/1/103 200/1/103 197/1/103
f 198/1/103 200/1/103 201/1/103
f 202/1/103 200/1/103 199/1/103
f 200/1/103 202/1/103 201/1/103
f 203/1/106 204/1/106 205/1/106
f 206/1/107 204/1/107 203/1/107
f 204/1/107 206/1/107 207/1/107
f 208/1/107 203/1/107 205/1/107
f 207/1/107 209/1/107 204/1/107
f 205/1/107 210/1/107 208/1/107
f 211/1/107 208/1/107 210/1/107
f 212/1/107 208/1/107 211/1/107
f 208/1/107 212/1/107 213/1/107
f 213/1/107 212/1/107 214/1/107
f 213/1/107 214/1/107 215/1/107
f 216/1/107 215/1/107 214/1/107
f 215/1/107 216/1/107 217/1/107
f 218/1/107 217/1/107 216/1/107
f 218/1/106 209/1/106 207/1/106
f 216/1/107 219/1/107 218/1/107
f 209/1/107 218/1/107 219/1/107
f 209/1/107 219/1/107 220/1/107
f 221/1/108 220/1/108 219/1/108
f 220/1/107 221/1/107 222/1/107
f 223/1/107 224/1/107 225/1/107
f 224/1/212 223/1/212 226/1/212
f 226/1/107 223/1/107 227/1/107
f 227/1/107 228/1/107 226/1/107
f 229/1/107 226/1/107 228/1/107
f 230/1/107 229/1/107 228/1/107
f 229/1/107 230/1/107 231/1/107
f 230/1/107 232/1/107 231/1/107
f 232/1/107 230/1/107 233/1/107
f 234/1/108 232/1/108 233/1/108
f 232/1/107 234/1/107 235/1/107
f 236/1/213 235/1/213 234/1/213
f 234/1/107 237/1/107 236/1/107
f 238/1/107 236/1/107 237/1/107
f 236/1/107 238/1/107 239/1/107
f 240/1/103 241/1/103 242/1/103
f 243/1/103 242/1/103 241/1/103
f 243/1/214 244/1/214 242/1/214
f 244/1/103 243/1/103 245/1/103
f 242/1/103 246/1/103 240/1/103
f 246/1/105 247/1/105 240/1/105
f 247/1/103 246/1/103 248/1/103
f 249/1/103 247/1/103 248/1/103
f 247/1/103 249/1/103 250/1/103
f 250/1/103 249/1/103 251/1/103
f 249/1/103 252/1/103 251/1/103
f 253/1/215 251/1/215 252/1/215
f 251/1/103 253/1/103 254/1/103
f 255/1/103 254/1/103 253/1/103
f 253/1/103 256/1/103 255/1/103
f 257/1/216 258/1/217 259/1/218
f 260/1/219 259/1/220 258/1/221
f 258/1/217 257/1/222 261/1/223
f 259/1/224 260/1/225 262/1/226
f 257/1/222 263/1/227 261/1/228
f 264/1/229 262/1/230 260/1/231
f 257/1/216 265/1/232 263/1/227
f 262/1/233 264/1/234 266/1/235
f 267/1/236 263/1/227 265/1/232
f 264/1/234 268/1/237 266/1/235
f 263/1/238 267/1/239 269/1/240
f 268/1/237 264/1/234 270/1/241
f 271/1/242 269/1/243 267/1/239
f 271/1/244 268/1/245 270/1/246
f 269/1/247 271/1/242 272/1/248
f 270/1/249 272/1/248 271/1/244
f 273/1/250 274/1/251 275/1/252
f 276/1/253 275/1/254 274/1/255
f 273/1/256 275/1/252 277/1/257
f 275/1/258 276/1/253 278/1/259
f 279/1/260 273/1/261 277/1/262
f 276/1/253 280/1/263 278/1/259
f 277/1/257 281/1/264 279/1/265
f 276/1/266 282/1/267 280/1/268
f 283/1/269 279/1/270 281/1/271
f 284/1/272 280/1/268 282/1/267
f 281/1/271 285/1/273 283/1/269
f 282/1/274 286/1/275 284/1/272
f 287/1/276 283/1/269 285/1/277
f 288/1/278 284/1/279 286/1/280
f 283/1/269 287/1/276 288/1/281
f 284/1/279 288/1/282 287/1/283
f 289/1/284 290/1/285 291/1/286
f 292/1/287 291/1/288 290/1/289
f 290/1/285 289/1/284 293/1/290
f 292/1/287 290/1/291 294/1/292
f 289/1/284 295/1/293 293/1/294
f 296/1/295 292/1/296 294/1/297
f 289/1/298 297/1/299 295/1/300
f 296/1/295 294/1/297 298/1/301
f 299/1/302 295/1/293 297/1/303
f 300/1/304 296/1/305 298/1/306
f 295/1/293 299/1/307 301/1/308
f 296/1/295 300/1/309 302/1/310
f 299/1/311 303/1/312 301/1/313
f 304/1/314 302/1/315 300/1/316
f 299/1/311 305/1/317 303/1/312
f 302/1/315 304/1/314 306/1/318
f 305/1/319 307/1/320 303/1/312
f 308/1/321 306/1/322 304/1/314
f 305/1/319 309/1/323 307/1/320
f 304/1/314 310/1/324 308/1/321
f 311/1/325 307/1/326 309/1/327
f 311/1/325 308/1/321 310/1/328
f 309/1/323 312/1/329 311/1/325
f 308/1/321 311/1/325 312/1/329
f 313/1/330 314/1/331 315/1/332
f 314/1/333 313/1/330 316/1/334
f 317/1/335 315/1/336 314/1/331
f 313/1/337 318/1/338 316/1/334
f 315/1/336 317/1/335 319/1/339
f 313/1/340 320/1/341 318/1/338
f 321/1/342 319/1/343 317/1/344
f 322/1/345 318/1/346 320/1/347
f 321/1/348 317/1/349 323/1/350
f 318/1/351 322/1/352 324/1/353
f 325/1/354 321/1/355 323/1/356
f 322/1/345 326/1/357 324/1/358
f 323/1/359 327/1/360 325/1/354
f 326/1/361 322/1/362 328/1/363
f 329/1/364 325/1/354 327/1/365
f 330/1/366 326/1/367 328/1/368
f 325/1/369 329/1/370 331/1/371
f 326/1/367 330/1/366 332/1/372
f 333/1/373 331/1/374 329/1/370
f 334/1/375 332/1/376 330/1/366
f 333/1/373 329/1/370 335/1/377
f 332/1/376 334/1/375 336/1/378
f 333/1/379 336/1/378 334/1/380
f 336/1/381 333/1/373 335/1/382
f 337/1/107 338/1/107 339/1/107
f 339/1/107 340/1/107 337/1/107
f 340/1/107 339/1/107 341/1/107
f 341/1/106 339/1/106 342/1/106
f 343/1/103 344/1/103 345/1/103
f 346/1/103 344/1/103 343/1/103
f 344/1/103 346/1/103 347/1/103
f 344/1/103 347/1/103 348/1/103
f 349/1/383 350/1/384 351/1/385
f 350/1/385 352/1/386 351/1/385
f 351/1/387 353/1/388 349/1/389
f 350/1/389 354/1/390 352/1/389
f 355/1/388 349/1/389 353/1/388
f 354/1/390 350/1/389 356/1/390
f 355/1/391 353/1/391 357/1/392
f 358/1/393 354/1/390 356/1/394
f 357/1/392 359/1/392 355/1/395
f 354/1/390 358/1/393 360/1/393
f 357/1/396 361/1/397 359/1/396
f 362/1/398 360/1/393 358/1/393
f 363/1/399 359/1/396 361/1/397
f 360/1/393 362/1/398 364/1/400
f 363/1/397 361/1/399 365/1/397
f 366/1/23 364/1/401 362/1/401
f 367/1/402 363/1/397 365/1/397
f 364/1/403 366/1/23 368/1/404
f 367/1/397 365/1/397 369/1/405
f 366/1/23 370/1/405 368/1/23
f 369/1/405 371/1/406 367/1/397
f 369/1/406 370/1/405 371/1/405
f 366/1/23 372/1/405 370/1/405
f 372/1/407 371/1/405 370/1/405
f 373/1/408 374/1/409 375/1/410
f 374/1/411 376/1/412 375/1/411
f 374/1/409 373/1/408 377/1/413
f 376/1/414 374/1/415 378/1/414
f 379/1/416 377/1/408 373/1/413
f 376/1/414 378/1/414 380/1/417
f 377/1/408 379/1/418 381/1/419
f 380/1/420 378/1/412 382/1/420
f 381/1/421 379/1/422 383/1/423
f 382/1/424 383/1/425 380/1/424
f 383/1/423 384/1/425 381/1/426
f 383/1/423 382/1/427 384/1/423
f 385/1/103 386/1/103 387/1/103
f 386/1/103 385/1/103 388/1/103
f 389/1/107 390/1/107 391/1/107
f 391/1/107 390/1/107 392/1/107
f 393/1/428 394/1/429 395/1/430
f 394/1/429 396/1/431 395/1/430
f 394/1/429 393/1/428 397/1/432
f 396/1/433 394/1/429 398/1/434
f 393/1/435 399/1/436 397/1/437
f 398/1/438 400/1/439 396/1/440
f 399/1/441 393/1/435 401/1/442
f 402/1/443 399/1/444 401/1/442
f 399/1/444 402/1/443 403/1/443
f 398/1/445 404/1/446 400/1/447
f 405/1/448 400/1/449 404/1/446
f 400/1/449 405/1/450 406/1/451
f 407/1/452 406/1/451 405/1/453
f 407/1/454 405/1/448 408/1/454
f 409/1/455 410/1/456 411/1/457
f 412/1/458 411/1/459 410/1/460
f 410/1/456 409/1/455 413/1/461
f 414/1/462 413/1/461 409/1/463
f 409/1/463 415/1/462 414/1/462
f 410/1/456 416/1/464 412/1/465
f 417/1/466 412/1/465 416/1/464
f 412/1/465 417/1/467 418/1/468
f 419/1/469 418/1/470 417/1/466
f 418/1/468 419/1/471 420/1/472
f 421/1/473 420/1/472 419/1/474
f 419/1/474 422/1/475 421/1/473
f 423/1/476 421/1/477 422/1/478
f 421/1/477 423/1/479 424/1/479
f 425/1/480 426/1/481 427/1/481
f 428/1/482 427/1/481 426/1/483
f 426/1/481 425/1/480 429/1/480
f 427/1/481 428/1/482 430/1/482
f 431/1/484 429/1/485 425/1/486
f 430/1/487 428/1/487 432/1/488
f 429/1/480 431/1/489 433/1/484
f 434/1/488 430/1/487 432/1/488
f 431/1/490 435/1/491 433/1/492
f 432/1/493 436/1/494 434/1/493
f 437/1/495 435/1/496 431/1/497
f 436/1/498 432/1/499 438/1/498
f 437/1/500 438/1/501 435/1/500
f 438/1/501 437/1/500 436/1/501
f 439/1/502 440/1/503 441/1/504
f 442/1/505 441/1/506 440/1/506
f 440/1/502 439/1/502 443/1/507
f 444/1/508 443/1/506 439/1/509
f 443/1/506 444/1/9 445/1/9
f 441/1/506 442/1/505 446/1/510
f 447/1/505 446/1/505 442/1/510
f 446/1/505 447/1/505 448/1/511
f 449/1/481 448/1/505 447/1/505
f 449/1/481 447/1/505 450/1/481
f 449/1/481 450/1/481 451/1/481
f 451/1/481 452/1/512 449/1/481
f 451/1/512 453/1/508 452/1/481
f 454/1/508 452/1/481 453/1/508
f 455/1/513 456/1/513 457/1/513
f 456/1/513 455/1/513 458/1/513
f 459/1/513 460/1/513 461/1/513
f 459/1/513 461/1/513 462/1/513
f 463/1/514 464/1/514 465/1/514
f 463/1/515 465/1/515 466/1/515
f 467/1/516 468/1/517 469/1/516
f 468/1/517 467/1/516 470/1/518
f 468/1/517 470/1/518 471/1/519
f 472/1/519 468/1/517 471/1/519
f 468/1/517 472/1/519 473/1/517
f 472/1/519 474/1/520 473/1/517
f 474/1/518 475/1/521 473/1/517
f 475/1/516 474/1/518 476/1/516
f 477/1/522 478/1/19 479/1/522
f 478/1/14 477/1/523 480/1/14
f 479/1/522 481/1/524 477/1/522
f 482/1/525 478/1/14 480/1/526
f 483/1/527 481/1/528 479/1/529
f 478/1/14 482/1/525 484/1/530
f 483/1/528 485/1/531 481/1/528
f 482/1/532 486/1/533 484/1/532
f 485/1/531 483/1/528 487/1/531
f 486/1/534 482/1/535 488/1/536
f 489/1/537 485/1/480 487/1/538
f 488/1/539 490/1/540 486/1/539
f 485/1/480 489/1/537 491/1/537
f 490/1/541 491/1/542 489/1/543
f 490/1/390 488/1/544 492/1/390
f 491/1/542 490/1/541 492/1/545
