# Blender 4.2.16 LTS
# www.blender.org
mtllib keyspraymag.mtl
o RenderMesh_127564637262921.001
v -0.137042 0.156648 0.044105
v 0.137042 0.156648 0.044105
v -0.137042 0.156648 -0.046422
v 0.137042 0.156648 -0.046422
v -0.165961 -0.325095 -0.033757
v -0.165959 -0.290524 0.043354
v -0.165959 -0.290524 -0.033758
v -0.165960 -0.325095 0.043354
v 0.166732 -0.290524 -0.033758
v 0.166732 -0.290524 0.043354
v 0.166733 -0.325095 -0.033757
v 0.166733 -0.325095 0.043354
v -0.165960 -0.325095 0.043354
v -0.158239 -0.290684 0.057530
v -0.165959 -0.290524 0.043354
v -0.158239 -0.324935 0.057531
v 0.166733 -0.325095 0.043354
v 0.166732 -0.290524 0.043354
v 0.159011 -0.290684 0.057530
v 0.159012 -0.324935 0.057531
v -0.158239 -0.324935 -0.047933
v -0.165959 -0.290524 -0.033758
v -0.158239 -0.290684 -0.047933
v -0.165961 -0.325095 -0.033757
v 0.159012 -0.324935 -0.047933
v 0.159011 -0.290684 -0.047933
v 0.166732 -0.290524 -0.033758
v 0.166733 -0.325095 -0.033757
v -0.137042 -0.233353 0.044105
v -0.137042 -0.233353 -0.046422
v -0.171302 -0.263353 -0.057738
v -0.137042 0.156648 0.044105
v -0.137042 0.156648 -0.046422
v -0.171302 -0.263353 0.055421
v -0.171302 -0.303353 -0.057738
v -0.171302 -0.303353 0.055421
v 0.137042 -0.233353 -0.046422
v 0.171302 -0.263353 0.055421
v 0.171302 -0.263353 -0.057738
v 0.171302 -0.303353 0.055421
v 0.171302 -0.303353 -0.057738
v 0.137042 -0.233353 0.044105
v 0.137042 0.156648 -0.046422
v 0.137042 0.156648 0.044105
v -0.044769 -0.479232 0.043354
v 0.045542 -0.479232 0.043353
v 0.045382 -0.471511 0.057531
v -0.044610 -0.471511 0.057531
v 0.045382 -0.471511 -0.047933
v -0.044769 -0.479232 -0.033757
v -0.044610 -0.471511 -0.047933
v 0.045542 -0.479232 -0.033757
v -0.098383 -0.426057 0.043344
v -0.044769 -0.479232 0.043354
v -0.090667 -0.425898 0.057525
v -0.044610 -0.471511 0.057531
v 0.045542 -0.479232 0.043353
v -0.044769 -0.479232 -0.033757
v 0.045542 -0.479232 -0.033757
v -0.044769 -0.479232 0.043354
v 0.091440 -0.425898 0.057525
v 0.045542 -0.479232 0.043353
v 0.099155 -0.426057 0.043344
v 0.045382 -0.471511 0.057531
v -0.044769 -0.479232 -0.033757
v -0.090667 -0.425898 -0.047927
v -0.044610 -0.471511 -0.047933
v -0.098383 -0.426057 -0.033747
v 0.099155 -0.426057 -0.033747
v 0.045542 -0.479232 -0.033757
v 0.091440 -0.425898 -0.047927
v 0.045382 -0.471511 -0.047933
v -0.044769 -0.479232 -0.033757
v -0.098383 -0.426057 0.043344
v -0.098383 -0.426057 -0.033747
v -0.044769 -0.479232 0.043354
v 0.045542 -0.479232 -0.033757
v 0.099155 -0.426057 -0.033747
v 0.045542 -0.479232 0.043353
v 0.099155 -0.426057 0.043344
v -0.098210 -0.377855 0.043338
v -0.113009 -0.370191 0.057530
v -0.113174 -0.377911 0.043351
v -0.097701 -0.370013 0.057731
v -0.098329 -0.377814 0.043360
v -0.090481 -0.377322 0.057732
v -0.090667 -0.425898 0.057525
v -0.098383 -0.426057 0.043344
v 0.099101 -0.377814 0.043360
v 0.091440 -0.425898 0.057525
v 0.099155 -0.426057 0.043344
v 0.091253 -0.377322 0.057732
v 0.098473 -0.370013 0.057731
v 0.098983 -0.377855 0.043338
v 0.113781 -0.370191 0.057530
v 0.113946 -0.377911 0.043351
v -0.090667 -0.425898 -0.047927
v -0.098329 -0.377814 -0.033762
v -0.090481 -0.377322 -0.048133
v -0.098383 -0.426057 -0.033747
v -0.097701 -0.370013 -0.048133
v -0.113009 -0.370191 -0.047932
v -0.098210 -0.377855 -0.033740
v -0.113174 -0.377911 -0.033753
v 0.091440 -0.425898 -0.047927
v 0.091253 -0.377322 -0.048133
v 0.099101 -0.377814 -0.033762
v 0.099155 -0.426057 -0.033747
v 0.098473 -0.370013 -0.048133
v 0.113781 -0.370191 -0.047932
v 0.098983 -0.377855 -0.033741
v 0.113946 -0.377911 -0.033753
v -0.098210 -0.377855 0.043338
v -0.113174 -0.377911 -0.033753
v -0.098210 -0.377855 -0.033740
v -0.113174 -0.377911 0.043351
v -0.098329 -0.377814 -0.033762
v -0.098329 -0.377814 0.043360
v -0.098383 -0.426057 0.043344
v -0.098383 -0.426057 -0.033747
v 0.113946 -0.377911 -0.033753
v 0.098983 -0.377855 0.043338
v 0.098983 -0.377855 -0.033741
v 0.113946 -0.377911 0.043351
v 0.099101 -0.377814 -0.033762
v 0.099101 -0.377814 0.043360
v 0.099155 -0.426057 0.043344
v 0.099155 -0.426057 -0.033747
v -0.165960 -0.325095 0.043354
v -0.113009 -0.370191 0.057530
v -0.158239 -0.324935 0.057531
v -0.113174 -0.377911 0.043351
v 0.159012 -0.324935 0.057531
v 0.113781 -0.370191 0.057530
v 0.166733 -0.325095 0.043354
v 0.113946 -0.377911 0.043351
v -0.113009 -0.370191 -0.047932
v -0.165961 -0.325095 -0.033757
v -0.158239 -0.324935 -0.047933
v -0.113174 -0.377911 -0.033753
v 0.166733 -0.325095 -0.033757
v 0.113781 -0.370191 -0.047932
v 0.159012 -0.324935 -0.047933
v 0.113946 -0.377911 -0.033753
v -0.113174 -0.377911 -0.033753
v -0.165960 -0.325095 0.043354
v -0.165961 -0.325095 -0.033757
v -0.113174 -0.377911 0.043351
v 0.113946 -0.377911 -0.033753
v 0.166733 -0.325095 -0.033757
v 0.113946 -0.377911 0.043351
v 0.166733 -0.325095 0.043354
v -0.171302 -0.263353 -0.057738
v 0.171302 -0.263353 -0.057738
v 0.171302 -0.303353 -0.057738
v -0.171302 -0.303353 -0.057738
v -0.137042 -0.233353 -0.046422
v 0.137042 -0.233353 -0.046422
v -0.137042 0.156648 -0.046422
v 0.137042 0.156648 -0.046422
v -0.111976 -0.323791 0.043344
v -0.111976 -0.323791 -0.033747
v -0.111834 -0.323918 -0.033753
v -0.111834 -0.323918 0.043351
v 0.112606 -0.323918 -0.033753
v 0.112748 -0.323791 0.043344
v 0.112606 -0.323918 0.043351
v 0.112748 -0.323791 -0.033748
v -0.119687 -0.291212 0.057733
v -0.158239 -0.324935 0.057531
v -0.119679 -0.324411 0.057729
v -0.158239 -0.290684 0.057530
v -0.158239 -0.324935 0.057531
v -0.112478 -0.331632 0.057729
v -0.119679 -0.324411 0.057729
v -0.113009 -0.370191 0.057530
v -0.090667 -0.425898 0.057525
v -0.044610 -0.471511 0.057531
v -0.052117 -0.425368 0.057738
v -0.044089 -0.432938 0.057723
v 0.044861 -0.432938 0.057723
v -0.044610 -0.471511 0.057531
v 0.045382 -0.471511 0.057531
v -0.044089 -0.432938 0.057723
v 0.159012 -0.324935 0.057531
v 0.120459 -0.291212 0.057733
v 0.120452 -0.324411 0.057729
v 0.159011 -0.290684 0.057530
v 0.113251 -0.331632 0.057729
v 0.159012 -0.324935 0.057531
v 0.120452 -0.324411 0.057729
v 0.113781 -0.370191 0.057530
v 0.052889 -0.425368 0.057738
v 0.045382 -0.471511 0.057531
v 0.091440 -0.425898 0.057525
v 0.044861 -0.432938 0.057723
v -0.112478 -0.331632 0.057729
v -0.113009 -0.370191 0.057530
v -0.097701 -0.370013 0.057731
v -0.097170 -0.331456 0.057530
v -0.051919 -0.376797 0.057526
v -0.090481 -0.377322 0.057732
v -0.052117 -0.425368 0.057738
v -0.090667 -0.425898 0.057525
v 0.091440 -0.425898 0.057525
v 0.091253 -0.377322 0.057732
v 0.052889 -0.425368 0.057738
v 0.052691 -0.376797 0.057526
v 0.098473 -0.370013 0.057731
v 0.097942 -0.331456 0.057530
v 0.113251 -0.331632 0.057729
v 0.113781 -0.370191 0.057530
v -0.119687 -0.291212 -0.048135
v -0.158239 -0.324935 -0.047933
v -0.158239 -0.290684 -0.047933
v -0.119679 -0.324411 -0.048132
v -0.112478 -0.331632 -0.048132
v -0.158239 -0.324935 -0.047933
v -0.119679 -0.324411 -0.048132
v -0.113009 -0.370191 -0.047932
v 0.044861 -0.432938 -0.048125
v -0.044610 -0.471511 -0.047933
v -0.044089 -0.432938 -0.048125
v 0.045382 -0.471511 -0.047933
v -0.052117 -0.425368 -0.048141
v -0.044610 -0.471511 -0.047933
v -0.090667 -0.425898 -0.047927
v -0.044089 -0.432938 -0.048125
v 0.091440 -0.425898 -0.047927
v 0.045382 -0.471511 -0.047933
v 0.052889 -0.425368 -0.048141
v 0.044861 -0.432938 -0.048125
v 0.159012 -0.324935 -0.047933
v 0.113251 -0.331632 -0.048132
v 0.120452 -0.324411 -0.048132
v 0.113781 -0.370191 -0.047932
v 0.159011 -0.290684 -0.047933
v 0.159012 -0.324935 -0.047933
v 0.120459 -0.291212 -0.048135
v 0.120452 -0.324411 -0.048132
v -0.051919 -0.376797 -0.047928
v -0.052117 -0.425368 -0.048141
v -0.090481 -0.377322 -0.048133
v -0.090667 -0.425898 -0.047927
v -0.097701 -0.370013 -0.048133
v -0.097170 -0.331456 -0.047932
v -0.112478 -0.331632 -0.048132
v -0.113009 -0.370191 -0.047932
v 0.091253 -0.377322 -0.048133
v 0.052889 -0.425368 -0.048141
v 0.052691 -0.376797 -0.047928
v 0.091440 -0.425898 -0.047927
v 0.098473 -0.370013 -0.048133
v 0.097942 -0.331456 -0.047932
v 0.113251 -0.331632 -0.048132
v 0.113781 -0.370191 -0.047932
v -0.171302 -0.303353 0.055421
v 0.171302 -0.303353 0.055421
v 0.171302 -0.263353 0.055421
v -0.171302 -0.263353 0.055421
v -0.137042 -0.233353 0.044105
v 0.137042 -0.233353 0.044105
v 0.137042 0.156648 0.044105
v -0.137042 0.156648 0.044105
v -0.111976 -0.323791 0.043344
v -0.097170 -0.331456 0.057530
v -0.097006 -0.323737 0.043349
v -0.112478 -0.331632 0.057729
v -0.044203 -0.376635 0.043348
v -0.051919 -0.376797 0.057526
v -0.044281 -0.424824 0.043347
v -0.052117 -0.425368 0.057738
v 0.097778 -0.323737 0.043348
v 0.097942 -0.331456 0.057530
v 0.112748 -0.323791 0.043344
v 0.113251 -0.331632 0.057729
v 0.044975 -0.376635 0.043348
v 0.052691 -0.376797 0.057526
v 0.045053 -0.424824 0.043347
v 0.052889 -0.425368 0.057738
v -0.097006 -0.323737 -0.033752
v -0.044203 -0.376635 -0.033750
v -0.097170 -0.331456 -0.047932
v -0.111976 -0.323791 -0.033747
v -0.112478 -0.331632 -0.048132
v -0.051919 -0.376797 -0.047928
v -0.044281 -0.424824 -0.033749
v -0.052117 -0.425368 -0.048141
v 0.052691 -0.376797 -0.047928
v 0.052889 -0.425368 -0.048141
v 0.045053 -0.424824 -0.033749
v 0.044975 -0.376635 -0.033750
v 0.097942 -0.331456 -0.047932
v 0.097778 -0.323737 -0.033752
v 0.112748 -0.323791 -0.033748
v 0.113251 -0.331632 -0.048132
v -0.112478 -0.331632 0.057729
v -0.111976 -0.323791 0.043344
v -0.119679 -0.324411 0.057729
v 0.112748 -0.323791 0.043344
v 0.113251 -0.331632 0.057729
v 0.120452 -0.324411 0.057729
v -0.111976 -0.323791 -0.033747
v -0.112478 -0.331632 -0.048132
v -0.119679 -0.324411 -0.048132
v 0.113251 -0.331632 -0.048132
v 0.112748 -0.323791 -0.033748
v 0.120452 -0.324411 -0.048132
v 0.171302 -0.303353 -0.057738
v -0.171302 -0.303353 0.055421
v -0.171302 -0.303353 -0.057738
v 0.171302 -0.303353 0.055421
v -0.043635 -0.425083 0.043348
v 0.044861 -0.432938 0.057723
v 0.044407 -0.425083 0.043348
v -0.044089 -0.432938 0.057723
v 0.044861 -0.432938 -0.048125
v -0.044089 -0.432938 -0.048125
v -0.043635 -0.425083 -0.033749
v 0.044407 -0.425083 -0.033749
v 0.097778 -0.323737 -0.033752
v 0.097778 -0.323737 0.043348
v 0.112748 -0.323791 -0.033748
v 0.112748 -0.323791 0.043344
v 0.044975 -0.376635 -0.033750
v 0.044975 -0.376635 0.043348
v 0.045053 -0.424824 -0.033749
v 0.045053 -0.424824 0.043347
v -0.111976 -0.323791 0.043344
v -0.097006 -0.323737 -0.033752
v -0.111976 -0.323791 -0.033747
v -0.097006 -0.323737 0.043349
v -0.044203 -0.376635 0.043348
v -0.044203 -0.376635 -0.033750
v -0.044281 -0.424824 0.043347
v -0.044281 -0.424824 -0.033749
v 0.044861 -0.432938 0.057723
v 0.045053 -0.424824 0.043347
v 0.044407 -0.425083 0.043348
v 0.052889 -0.425368 0.057738
v -0.044089 -0.432938 0.057723
v -0.043635 -0.425083 0.043348
v -0.044281 -0.424824 0.043347
v -0.052117 -0.425368 0.057738
v -0.044089 -0.432938 -0.048125
v -0.044281 -0.424824 -0.033749
v -0.043635 -0.425083 -0.033749
v -0.052117 -0.425368 -0.048141
v 0.044861 -0.432938 -0.048125
v 0.045053 -0.424824 -0.033749
v 0.052889 -0.425368 -0.048141
v 0.044407 -0.425083 -0.033749
v -0.043635 -0.425083 -0.033749
v -0.043635 -0.425083 0.043348
v 0.044407 -0.425083 -0.033749
v 0.044407 -0.425083 0.043348
v -0.111854 -0.291745 0.043348
v -0.119679 -0.324411 0.057729
v -0.111834 -0.323918 0.043351
v -0.119687 -0.291212 0.057733
v 0.112627 -0.291745 0.043348
v 0.112606 -0.323918 0.043351
v 0.120452 -0.324411 0.057729
v 0.120459 -0.291212 0.057733
v -0.119679 -0.324411 -0.048132
v -0.119687 -0.291212 -0.048135
v -0.111854 -0.291745 -0.033749
v -0.111834 -0.323918 -0.033753
v 0.120452 -0.324411 -0.048132
v 0.112627 -0.291745 -0.033749
v 0.120459 -0.291212 -0.048135
v 0.112606 -0.323918 -0.033753
v -0.043635 -0.425083 0.043348
v -0.043635 -0.425083 -0.033749
v -0.044281 -0.424824 -0.033749
v -0.044281 -0.424824 0.043347
v 0.044407 -0.425083 -0.033749
v 0.045053 -0.424824 0.043347
v 0.045053 -0.424824 -0.033749
v 0.044407 -0.425083 0.043348
v -0.111854 -0.291745 0.043348
v -0.111834 -0.323918 -0.033753
v -0.111854 -0.291745 -0.033749
v -0.111834 -0.323918 0.043351
v 0.112606 -0.323918 -0.033753
v 0.112606 -0.323918 0.043351
v 0.112627 -0.291745 -0.033749
v 0.112627 -0.291745 0.043348
vn 0.0005 1.0000 0.0005
vn -1.0000 0.0005 0.0005
vn 1.0000 0.0005 0.0005
vn -0.8781 0.0005 0.4784
vn 0.8781 0.0009 0.4784
vn 0.8781 0.0006 0.4785
vn -0.8781 0.0005 -0.4784
vn -0.8781 0.0009 -0.4784
vn 0.8782 -0.0000 -0.4783
vn 0.8781 0.0007 -0.4784
vn -0.8945 0.4471 0.0005
vn -0.9284 0.3717 0.0004
vn -0.8945 0.4470 -0.0000
vn -0.8945 0.4470 0.0005
vn -0.9284 0.3717 0.0005
vn -0.9284 0.3716 0.0005
vn -0.9284 0.3716 0.0004
vn 0.8945 0.4470 0.0005
vn 0.9284 0.3717 0.0005
vn 0.9284 0.3716 0.0005
vn 0.8945 0.4470 -0.0000
vn 0.0005 -0.8781 0.4784
vn 0.0008 -0.8781 -0.4784
vn 0.0005 -0.8781 -0.4784
vn -0.6551 -0.6610 0.3659
vn 0.0005 -1.0000 0.0005
vn 0.6551 -0.6610 0.3659
vn -0.6551 -0.6610 -0.3659
vn 0.6551 -0.6610 -0.3660
vn -0.7042 -0.7100 -0.0000
vn 0.7042 -0.7100 0.0006
vn 0.7042 -0.7100 0.0005
vn -0.3111 -0.8291 0.4646
vn 0.0034 -0.8781 0.4785
vn 0.0036 -0.8781 0.4784
vn -0.3112 -0.8290 0.4646
vn -0.3200 -0.8262 0.4637
vn -0.8300 -0.3132 0.4616
vn -0.8308 -0.3111 0.4615
vn -0.8300 -0.3131 0.4616
vn -0.8781 0.0015 0.4784
vn -0.8308 -0.3110 0.4615
vn -0.8781 0.0016 0.4785
vn 0.8300 -0.3131 0.4617
vn 0.8781 0.0015 0.4784
vn 0.8782 0.0015 0.4783
vn 0.8300 -0.3131 0.4616
vn 0.8308 -0.3111 0.4615
vn 0.8308 -0.3111 0.4616
vn 0.8300 -0.3132 0.4616
vn 0.3200 -0.8262 0.4636
vn 0.3112 -0.8291 0.4646
vn -0.0039 -0.8782 0.4783
vn 0.3200 -0.8262 0.4637
vn -0.0034 -0.8781 0.4785
vn 0.3111 -0.8291 0.4646
vn -0.8782 0.0015 -0.4783
vn -0.8300 -0.3131 -0.4616
vn -0.8308 -0.3111 -0.4615
vn -0.8300 -0.3130 -0.4617
vn -0.8781 0.0015 -0.4785
vn -0.8307 -0.3112 -0.4615
vn -0.8300 -0.3131 -0.4617
vn -0.3200 -0.8262 -0.4637
vn 0.0036 -0.8781 -0.4784
vn -0.3112 -0.8291 -0.4646
vn 0.0034 -0.8781 -0.4784
vn -0.3111 -0.8291 -0.4646
vn 0.8781 0.0015 -0.4784
vn 0.8308 -0.3111 -0.4615
vn 0.8300 -0.3131 -0.4617
vn 0.8782 0.0013 -0.4783
vn 0.8300 -0.3130 -0.4616
vn 0.8300 -0.3131 -0.4616
vn 0.8308 -0.3112 -0.4615
vn 0.3200 -0.8262 -0.4636
vn -0.0039 -0.8782 -0.4784
vn 0.3112 -0.8291 -0.4646
vn 0.3200 -0.8262 -0.4637
vn 0.3111 -0.8291 -0.4646
vn -0.0033 -0.8780 -0.4786
vn 0.9872 0.1597 0.0004
vn 0.0033 -1.0000 0.0007
vn 0.9872 0.1597 0.0005
vn 0.0036 -1.0000 0.0003
vn -0.6513 0.7588 0.0005
vn 0.9872 0.1597 0.0006
vn 0.9871 0.1598 0.0004
vn -0.6513 0.7588 0.0006
vn -1.0000 0.0014 0.0004
vn -1.0000 0.0011 -0.0000
vn -0.6513 0.7588 0.0004
vn -0.0037 -1.0000 -0.0000
vn -0.9870 0.1607 0.0005
vn -0.9870 0.1607 0.0007
vn -0.0036 -1.0000 0.0003
vn 0.6513 0.7588 0.0005
vn -0.9870 0.1607 0.0004
vn 1.0000 0.0014 0.0004
vn 0.6513 0.7588 0.0003
vn 1.0000 0.0011 -0.0000
vn -0.6583 -0.6579 0.3659
vn 0.6579 -0.6582 0.3659
vn 0.6583 -0.6579 0.3659
vn -0.6578 -0.6584 -0.3658
vn -0.6582 -0.6579 -0.3659
vn 0.6582 -0.6579 -0.3659
vn 0.6580 -0.6581 -0.3660
vn -0.7071 -0.7071 0.0004
vn -0.7071 -0.7071 0.0005
vn 0.7071 -0.7071 0.0004
vn 0.0005 0.1157 -0.9933
vn 0.0005 0.0005 -1.0000
vn 0.0005 0.1160 -0.9933
vn 0.0005 0.2145 -0.9767
vn -0.0000 0.2145 -0.9767
vn -0.6659 -0.7460 0.0005
vn -0.6659 -0.7461 0.0005
vn 0.6654 -0.7465 0.0005
vn 0.6655 -0.7464 0.0005
vn -0.0051 -0.0001 1.0000
vn -0.0054 -0.0003 1.0000
vn -0.0051 -0.0051 1.0000
vn -0.0055 -0.0054 1.0000
vn -0.0054 -0.0054 1.0000
vn 0.0004 -0.0053 1.0000
vn 0.0003 -0.0052 1.0000
vn 0.0053 -0.0004 1.0000
vn 0.0054 -0.0003 1.0000
vn 0.0051 -0.0051 1.0000
vn 0.0055 -0.0054 1.0000
vn 0.0053 -0.0054 1.0000
vn 0.0005 0.0005 1.0000
vn 0.0034 0.0034 1.0000
vn 0.0015 0.0015 1.0000
vn -0.0005 0.0005 1.0000
vn -0.0034 0.0034 1.0000
vn -0.0015 0.0015 1.0000
vn -0.0035 0.0035 1.0000
vn -0.0014 0.0015 1.0000
vn -0.0054 -0.0005 -1.0000
vn -0.0052 -0.0001 -1.0000
vn -0.0051 -0.0051 -1.0000
vn 0.0004 -0.0053 -1.0000
vn -0.0055 -0.0054 -1.0000
vn -0.0054 -0.0054 -1.0000
vn 0.0055 -0.0054 -1.0000
vn 0.0054 -0.0054 -1.0000
vn 0.0051 -0.0051 -1.0000
vn 0.0054 -0.0005 -1.0000
vn 0.0052 -0.0001 -1.0000
vn 0.0014 0.0015 -1.0000
vn -0.0005 0.0005 -1.0000
vn 0.0034 0.0034 -1.0000
vn 0.0015 0.0015 -1.0000
vn -0.0034 0.0034 -1.0000
vn -0.0014 0.0015 -1.0000
vn -0.0015 0.0015 -1.0000
vn -0.0035 0.0035 -1.0000
vn 0.0005 0.1157 0.9933
vn 0.0005 0.1160 0.9933
vn 0.0005 0.2145 0.9767
vn -0.0000 0.2145 0.9767
vn -0.0035 0.8780 0.4786
vn 0.3755 0.8120 0.4468
vn 0.3120 0.8326 0.4576
vn -0.0034 0.8781 0.4784
vn 0.8330 0.3122 0.4568
vn 0.3121 0.8326 0.4576
vn 0.3756 0.8120 0.4467
vn 0.8121 0.3765 0.4458
vn 0.8780 -0.0015 0.4787
vn 0.8330 0.3120 0.4568
vn 0.8121 0.3765 0.4459
vn 0.8783 -0.0015 0.4782
vn -0.3119 0.8326 0.4576
vn -0.3755 0.8121 0.4468
vn 0.0034 0.8782 0.4783
vn 0.0030 0.8782 0.4783
vn -0.3755 0.8120 0.4468
vn -0.3121 0.8326 0.4576
vn -0.8330 0.3122 0.4568
vn -0.3756 0.8120 0.4468
vn -0.8121 0.3765 0.4458
vn -0.8780 -0.0015 0.4787
vn -0.8121 0.3765 0.4459
vn -0.8330 0.3120 0.4568
vn -0.8783 -0.0015 0.4782
vn 0.3121 0.8326 -0.4576
vn 0.8330 0.3122 -0.4568
vn 0.3755 0.8120 -0.4468
vn 0.3754 0.8121 -0.4468
vn -0.0034 0.8781 -0.4785
vn 0.3120 0.8326 -0.4576
vn -0.0038 0.8781 -0.4785
vn 0.8121 0.3765 -0.4458
vn 0.3756 0.8120 -0.4468
vn 0.8780 -0.0015 -0.4786
vn 0.8121 0.3765 -0.4459
vn 0.8330 0.3120 -0.4568
vn 0.8781 -0.0015 -0.4784
vn -0.8121 0.3765 -0.4458
vn -0.8780 -0.0015 -0.4787
vn -0.8121 0.3764 -0.4459
vn -0.8781 -0.0015 -0.4784
vn -0.8330 0.3120 -0.4568
vn -0.8330 0.3122 -0.4568
vn -0.3756 0.8120 -0.4467
vn -0.3755 0.8120 -0.4468
vn -0.3121 0.8326 -0.4576
vn 0.0035 0.8780 -0.4786
vn -0.3119 0.8326 -0.4576
vn 0.0038 0.8781 -0.4785
vn 0.6561 0.6523 0.3796
vn -0.6561 0.6523 0.3796
vn 0.6561 0.6523 -0.3796
vn -0.6561 0.6523 -0.3796
vn 0.0003 0.8776 0.4793
vn 0.0004 0.8777 -0.4793
vn -0.3814 0.9244 0.0005
vn 0.0036 1.0000 -0.0000
vn -0.9244 0.3814 0.0005
vn -0.3814 0.9244 0.0004
vn -1.0000 -0.0015 0.0003
vn -1.0000 -0.0014 0.0005
vn -0.0036 1.0000 -0.0000
vn 0.3814 0.9244 0.0005
vn 0.9244 0.3814 0.0004
vn 0.9244 0.3814 0.0005
vn 1.0000 -0.0015 0.0003
vn 1.0000 -0.0014 0.0004
vn -0.6200 0.6866 0.3797
vn -0.6200 0.6866 0.3798
vn -0.6201 0.6865 0.3797
vn 0.6200 0.6866 0.3797
vn 0.6201 0.6865 0.3797
vn 0.6200 0.6866 -0.3797
vn 0.6201 0.6865 -0.3797
vn -0.6201 0.6865 -0.3797
vn -0.6200 0.6866 -0.3797
vn 0.8782 0.0005 0.4783
vn 0.8782 0.0002 0.4782
vn -0.8782 0.0004 0.4783
vn 0.8781 0.0006 -0.4785
vn 0.8782 0.0005 -0.4784
vn -0.8782 0.0005 -0.4783
vn 0.3730 0.9278 0.0006
vn -0.3729 0.9279 0.0006
vn 1.0000 0.0005 0.0006
vt 0.000000 0.000000
s 0
f 1/1/1 2/1/1 3/1/1
f 4/1/1 3/1/1 2/1/1
f 5/1/2 6/1/2 7/1/2
f 6/1/2 5/1/2 8/1/2
f 9/1/3 10/1/3 11/1/3
f 11/1/3 10/1/3 12/1/3
f 13/1/4 14/1/4 15/1/4
f 14/1/4 13/1/4 16/1/4
f 17/1/5 18/1/5 19/1/5
f 17/1/6 19/1/6 20/1/6
f 21/1/7 22/1/7 23/1/7
f 22/1/8 21/1/8 24/1/8
f 25/1/9 26/1/9 27/1/9
f 25/1/10 27/1/10 28/1/10
f 29/1/11 30/1/11 31/1/12
f 29/1/13 32/1/2 30/1/14
f 33/1/2 30/1/14 32/1/2
f 31/1/15 34/1/15 29/1/14
f 35/1/2 34/1/16 31/1/17
f 34/1/16 35/1/2 36/1/2
f 37/1/18 38/1/19 39/1/19
f 39/1/20 38/1/20 40/1/3
f 40/1/3 41/1/3 39/1/20
f 38/1/19 37/1/18 42/1/18
f 43/1/3 42/1/18 37/1/21
f 42/1/18 43/1/3 44/1/3
f 45/1/22 46/1/22 47/1/22
f 45/1/22 47/1/22 48/1/22
f 49/1/23 50/1/23 51/1/23
f 50/1/24 49/1/24 52/1/24
f 53/1/25 54/1/25 55/1/25
f 55/1/25 54/1/25 56/1/25
f 57/1/26 58/1/26 59/1/26
f 58/1/26 57/1/26 60/1/26
f 61/1/27 62/1/27 63/1/27
f 62/1/27 61/1/27 64/1/27
f 65/1/28 66/1/28 67/1/28
f 66/1/28 65/1/28 68/1/28
f 69/1/29 70/1/29 71/1/29
f 72/1/29 71/1/29 70/1/29
f 73/1/30 74/1/30 75/1/30
f 74/1/30 73/1/30 76/1/30
f 77/1/31 78/1/31 79/1/31
f 78/1/32 80/1/32 79/1/32
f 81/1/33 82/1/34 83/1/34
f 82/1/35 81/1/36 84/1/37
f 85/1/38 86/1/39 84/1/37
f 85/1/40 87/1/41 86/1/42
f 85/1/40 88/1/43 87/1/43
f 89/1/44 90/1/45 91/1/45
f 90/1/46 89/1/47 92/1/48
f 92/1/49 89/1/50 93/1/51
f 94/1/52 95/1/53 93/1/54
f 96/1/55 95/1/55 94/1/56
f 97/1/57 98/1/58 99/1/59
f 98/1/60 97/1/61 100/1/61
f 99/1/62 98/1/63 101/1/64
f 102/1/65 101/1/64 103/1/66
f 102/1/67 103/1/68 104/1/67
f 105/1/69 106/1/70 107/1/71
f 105/1/72 107/1/73 108/1/72
f 107/1/74 106/1/75 109/1/76
f 110/1/77 111/1/78 109/1/79
f 111/1/80 110/1/81 112/1/81
f 113/1/82 114/1/83 115/1/84
f 114/1/85 113/1/82 116/1/85
f 117/1/86 113/1/84 115/1/87
f 113/1/88 117/1/86 118/1/89
f 117/1/86 119/1/90 118/1/86
f 119/1/91 117/1/92 120/1/91
f 121/1/93 122/1/94 123/1/95
f 122/1/94 121/1/96 124/1/96
f 122/1/94 125/1/97 123/1/94
f 125/1/97 122/1/98 126/1/97
f 127/1/99 125/1/97 126/1/100
f 125/1/97 127/1/101 128/1/101
f 129/1/102 130/1/102 131/1/102
f 130/1/102 129/1/102 132/1/102
f 133/1/103 134/1/103 135/1/103
f 136/1/104 135/1/104 134/1/104
f 137/1/105 138/1/105 139/1/105
f 138/1/106 137/1/106 140/1/106
f 141/1/107 142/1/107 143/1/107
f 142/1/108 141/1/108 144/1/108
f 145/1/109 146/1/109 147/1/109
f 146/1/110 145/1/110 148/1/110
f 149/1/111 150/1/111 151/1/111
f 150/1/111 152/1/111 151/1/111
f 153/1/112 154/1/112 155/1/113
f 153/1/112 155/1/113 156/1/113
f 154/1/114 153/1/114 157/1/115
f 154/1/114 157/1/115 158/1/115
f 159/1/113 158/1/115 157/1/116
f 159/1/113 160/1/113 158/1/115
f 161/1/117 162/1/117 163/1/117
f 163/1/118 164/1/118 161/1/118
f 165/1/119 166/1/119 167/1/119
f 166/1/120 165/1/120 168/1/120
f 169/1/121 170/1/121 171/1/121
f 170/1/122 169/1/122 172/1/122
f 173/1/123 174/1/123 175/1/123
f 174/1/123 173/1/123 176/1/123
f 177/1/124 178/1/124 179/1/124
f 179/1/125 178/1/125 180/1/125
f 181/1/126 182/1/126 183/1/126
f 182/1/127 181/1/127 184/1/127
f 185/1/128 186/1/128 187/1/128
f 186/1/129 185/1/129 188/1/129
f 189/1/130 190/1/130 191/1/130
f 192/1/130 190/1/130 189/1/130
f 193/1/131 194/1/131 195/1/131
f 194/1/132 193/1/132 196/1/132
f 197/1/133 198/1/133 199/1/134
f 199/1/134 200/1/135 197/1/133
f 199/1/134 201/1/135 200/1/135
f 201/1/135 199/1/134 202/1/134
f 202/1/134 203/1/136 201/1/135
f 203/1/136 202/1/134 204/1/136
f 205/1/133 206/1/137 207/1/133
f 207/1/133 206/1/137 208/1/138
f 209/1/137 208/1/138 206/1/137
f 210/1/138 208/1/138 209/1/139
f 209/1/137 211/1/133 210/1/140
f 211/1/133 209/1/137 212/1/133
f 213/1/141 214/1/141 215/1/141
f 214/1/142 213/1/142 216/1/142
f 217/1/143 218/1/143 219/1/143
f 220/1/143 218/1/143 217/1/143
f 221/1/144 222/1/144 223/1/144
f 222/1/144 221/1/144 224/1/144
f 225/1/145 226/1/145 227/1/145
f 226/1/146 225/1/146 228/1/146
f 229/1/147 230/1/147 231/1/147
f 231/1/148 230/1/148 232/1/148
f 233/1/149 234/1/149 235/1/149
f 234/1/149 233/1/149 236/1/149
f 237/1/150 238/1/150 239/1/150
f 239/1/151 238/1/151 240/1/151
f 241/1/152 242/1/153 243/1/154
f 243/1/154 242/1/153 244/1/153
f 245/1/154 241/1/155 243/1/154
f 245/1/154 246/1/155 241/1/155
f 245/1/154 247/1/113 246/1/155
f 247/1/113 245/1/154 248/1/113
f 249/1/156 250/1/113 251/1/157
f 250/1/113 249/1/156 252/1/113
f 251/1/158 253/1/156 249/1/156
f 253/1/159 251/1/158 254/1/158
f 255/1/113 253/1/156 254/1/158
f 253/1/156 255/1/113 256/1/113
f 257/1/133 258/1/133 259/1/160
f 257/1/133 259/1/160 260/1/160
f 259/1/161 261/1/162 260/1/161
f 261/1/162 259/1/161 262/1/162
f 262/1/163 263/1/133 261/1/162
f 261/1/162 263/1/133 264/1/133
f 265/1/164 266/1/165 267/1/166
f 266/1/165 265/1/167 268/1/167
f 266/1/165 269/1/168 267/1/169
f 269/1/168 266/1/170 270/1/171
f 271/1/172 269/1/173 270/1/174
f 271/1/175 270/1/174 272/1/175
f 273/1/176 274/1/177 275/1/178
f 275/1/179 274/1/180 276/1/179
f 273/1/181 277/1/182 274/1/180
f 274/1/183 277/1/182 278/1/184
f 279/1/185 278/1/186 277/1/187
f 278/1/186 279/1/188 280/1/188
f 281/1/189 282/1/190 283/1/191
f 283/1/192 284/1/193 281/1/194
f 283/1/191 285/1/195 284/1/195
f 286/1/196 283/1/197 282/1/190
f 287/1/198 286/1/199 282/1/200
f 286/1/199 287/1/201 288/1/201
f 289/1/202 290/1/203 291/1/203
f 289/1/204 291/1/205 292/1/206
f 292/1/207 293/1/208 289/1/202
f 293/1/209 292/1/207 294/1/210
f 295/1/211 293/1/209 294/1/212
f 293/1/209 295/1/213 296/1/213
f 297/1/214 298/1/214 299/1/214
f 300/1/215 301/1/215 302/1/215
f 303/1/216 304/1/216 305/1/216
f 306/1/217 307/1/217 308/1/217
f 309/1/26 310/1/26 311/1/26
f 310/1/26 309/1/26 312/1/26
f 313/1/218 314/1/218 315/1/218
f 314/1/218 313/1/218 316/1/218
f 317/1/219 318/1/219 319/1/219
f 317/1/219 319/1/219 320/1/219
f 321/1/220 322/1/220 323/1/221
f 323/1/221 322/1/220 324/1/221
f 325/1/222 322/1/220 321/1/220
f 322/1/223 325/1/222 326/1/222
f 327/1/224 326/1/222 325/1/222
f 326/1/222 327/1/225 328/1/225
f 329/1/226 330/1/227 331/1/226
f 330/1/227 329/1/226 332/1/227
f 330/1/227 332/1/227 333/1/228
f 334/1/229 330/1/227 333/1/229
f 335/1/230 334/1/229 333/1/229
f 334/1/229 335/1/231 336/1/231
f 337/1/232 338/1/233 339/1/232
f 338/1/234 337/1/234 340/1/234
f 341/1/235 342/1/235 343/1/235
f 343/1/236 344/1/236 341/1/236
f 345/1/237 346/1/237 347/1/237
f 346/1/238 345/1/238 348/1/238
f 349/1/239 350/1/239 351/1/239
f 350/1/240 349/1/240 352/1/240
f 353/1/1 354/1/1 355/1/1
f 355/1/1 354/1/1 356/1/1
f 357/1/241 358/1/241 359/1/241
f 358/1/242 357/1/242 360/1/242
f 361/1/4 362/1/4 363/1/4
f 361/1/243 363/1/243 364/1/243
f 365/1/244 366/1/244 367/1/244
f 365/1/245 367/1/245 368/1/245
f 369/1/7 370/1/7 371/1/7
f 370/1/246 369/1/246 372/1/246
f 373/1/247 374/1/247 375/1/247
f 375/1/247 376/1/247 373/1/247
f 377/1/248 378/1/248 379/1/248
f 378/1/248 377/1/248 380/1/248
f 381/1/249 382/1/249 383/1/249
f 382/1/3 381/1/3 384/1/3
f 385/1/2 386/1/2 387/1/2
f 387/1/2 386/1/2 388/1/2
