# Blender 4.2.16 LTS
# www.blender.org
mtllib keyspraystock.mtl
o RenderMesh_103749225541480
v 0.140012 -0.136046 0.033019
v 0.428150 -0.136046 -0.033019
v 0.428150 -0.136046 0.033019
v 0.458364 -0.066306 0.033019
v 0.140012 -0.136046 -0.033019
v 0.458364 -0.066306 -0.033019
v 0.114784 -0.164767 0.033019
v 0.417446 -0.029657 -0.033019
v 0.114784 -0.164767 -0.033019
v -0.346012 -0.166262 0.033019
v -0.346012 -0.166262 -0.033019
v 0.417446 -0.029657 0.033019
v 0.077373 -0.028542 -0.033019
v 0.077373 -0.028542 0.033019
v 0.049845 -0.057563 -0.033019
v 0.049845 -0.057563 0.033019
v -0.208083 -0.057481 -0.033019
v -0.208083 -0.057481 0.033019
v -0.277048 0.102560 -0.033019
v -0.277048 0.102560 0.033019
v -0.346012 0.102601 -0.033019
v -0.346012 0.102601 0.033019
v -0.443288 -0.189380 -0.061965
v -0.348394 -0.168635 -0.061974
v -0.412581 -0.217310 -0.061957
v -0.443372 0.205826 -0.061978
v -0.348334 0.185553 -0.061979
v -0.413104 0.226171 -0.061980
v -0.348394 -0.168635 0.061974
v -0.443372 0.205826 0.061978
v -0.443288 -0.189380 0.061965
v -0.412581 -0.217310 0.061957
v -0.348334 0.185553 0.061979
v -0.413104 0.226171 0.061980
v 0.109336 -0.152786 -0.045019
v 0.140012 -0.136046 -0.033019
v 0.114784 -0.164767 -0.033019
v -0.346012 -0.166262 -0.033019
v -0.346012 -0.154237 -0.045019
v 0.134580 -0.124046 -0.045019
v 0.420074 -0.124046 -0.045019
v 0.428150 -0.136046 -0.033019
v 0.444104 -0.070060 -0.045019
v 0.458364 -0.066306 -0.033019
v 0.417446 -0.029657 -0.033019
v 0.410313 -0.041636 -0.045019
v 0.077373 -0.028542 -0.033019
v 0.082516 -0.040557 -0.045019
v 0.049845 -0.057563 -0.033019
v 0.055000 -0.069565 -0.045019
v -0.208083 -0.057481 -0.033019
v -0.215506 -0.069483 -0.045019
v -0.285759 0.090557 -0.045019
v -0.277048 0.102560 -0.033019
v -0.346012 0.102601 -0.033019
v -0.346012 0.090598 -0.045019
v 0.140012 -0.136046 0.033019
v 0.428150 -0.136046 0.033019
v 0.420073 -0.124046 0.045019
v 0.134580 -0.124046 0.045019
v 0.444104 -0.070060 0.045019
v 0.109336 -0.152786 0.045019
v 0.458364 -0.066306 0.033019
v 0.114784 -0.164767 0.033019
v -0.346012 -0.166262 0.033019
v -0.346012 -0.154237 0.045019
v 0.417446 -0.029657 0.033019
v 0.410313 -0.041636 0.045019
v 0.077373 -0.028542 0.033019
v 0.082516 -0.040557 0.045019
v 0.049845 -0.057563 0.033019
v 0.055000 -0.069565 0.045019
v -0.208083 -0.057481 0.033019
v -0.215506 -0.069483 0.045019
v -0.285759 0.090557 0.045019
v -0.277048 0.102560 0.033019
v -0.346012 0.102601 0.033019
v -0.346012 0.090598 0.045019
v -0.412581 -0.217310 -0.061957
v -0.333364 -0.180290 -0.046567
v -0.413364 -0.246150 -0.046567
v -0.458364 -0.202590 -0.046567
v -0.348394 -0.168635 -0.061974
v -0.443288 -0.189380 -0.061965
v -0.333364 0.193850 -0.046567
v -0.458364 0.213850 -0.046567
v -0.348334 0.185553 -0.061979
v -0.443372 0.205826 -0.061978
v -0.413104 0.226171 -0.061980
v -0.413364 0.246150 -0.046567
v -0.412581 -0.217310 0.061957
v -0.333364 -0.180290 0.046567
v -0.348394 -0.168635 0.061974
v -0.413364 -0.246150 0.046567
v -0.333364 0.193850 0.046567
v -0.458364 -0.202590 0.046567
v -0.348334 0.185553 0.061979
v -0.443288 -0.189380 0.061965
v -0.413104 0.226171 0.061980
v -0.458364 0.213850 0.046567
v -0.413364 0.246150 0.046567
v -0.443372 0.205826 0.061978
v -0.215506 -0.069483 0.045019
v 0.109336 -0.152786 0.045019
v 0.055000 -0.069565 0.045019
v -0.346012 -0.154237 0.045019
v -0.346012 0.090598 0.045019
v -0.285759 0.090557 0.045019
v 0.134580 -0.124046 0.045019
v 0.082516 -0.040557 0.045019
v 0.410313 -0.041636 0.045019
v 0.420073 -0.124046 0.045019
v 0.444104 -0.070060 0.045019
v -0.285759 0.090557 -0.045019
v -0.215506 -0.069483 -0.045019
v -0.346012 0.090598 -0.045019
v -0.346012 -0.154237 -0.045019
v 0.109336 -0.152786 -0.045019
v 0.055000 -0.069565 -0.045019
v 0.134580 -0.124046 -0.045019
v 0.082516 -0.040557 -0.045019
v 0.410313 -0.041636 -0.045019
v 0.420074 -0.124046 -0.045019
v 0.444104 -0.070060 -0.045019
v -0.413364 0.246150 -0.046567
v -0.458364 0.213850 0.046567
v -0.413364 0.246150 0.046567
v -0.458364 0.213850 -0.046567
v -0.333364 0.193850 -0.046567
v -0.458364 -0.202590 0.046567
v -0.333364 0.193850 0.046567
v -0.458364 -0.202590 -0.046567
v -0.333364 -0.180290 0.046567
v -0.413364 -0.246150 0.046567
v -0.333364 -0.180290 -0.046567
v -0.413364 -0.246150 -0.046567
vn 0.4120 -0.9112 -0.0005
vn 0.5488 -0.8359 -0.0005
vn 0.5488 -0.8360 -0.0005
vn 0.9767 0.2145 -0.0005
vn 0.4120 -0.9112 -0.0000
vn 0.5488 -0.8360 -0.0004
vn 0.4140 -0.9103 -0.0005
vn 0.9767 0.2144 -0.0005
vn 0.3583 0.9336 -0.0005
vn 0.0035 -1.0000 -0.0004
vn 0.3582 0.9336 -0.0005
vn -0.3930 0.9196 -0.0005
vn -0.3930 0.9195 -0.0005
vn -0.3950 0.9187 -0.0005
vn -0.3950 0.9187 -0.0000
vn -0.3949 0.9187 -0.0000
vn 0.5499 0.8352 -0.0005
vn -0.3949 0.9187 -0.0005
vn 0.5499 0.8352 -0.0000
vn 0.5500 0.8352 -0.0005
vn 0.0006 1.0000 -0.0005
vn -0.0003 0.0003 -1.0000
vn -0.0003 0.0004 -1.0000
vn -0.0003 0.0004 1.0000
vn -0.0004 0.0005 1.0000
vn -0.0003 0.0003 1.0000
vn 0.2791 -0.6130 -0.7391
vn 0.2782 -0.6132 -0.7393
vn 0.2791 -0.6131 -0.7391
vn 0.0026 -0.7066 -0.7076
vn 0.2790 -0.6131 -0.7391
vn 0.0027 -0.7067 -0.7075
vn 0.3503 -0.5398 -0.7654
vn 0.2781 -0.6133 -0.7393
vn 0.2782 -0.6133 -0.7393
vn 0.3503 -0.5398 -0.7655
vn 0.3552 -0.5368 -0.7653
vn 0.6032 0.1196 -0.7886
vn 0.3552 -0.5367 -0.7653
vn 0.3504 -0.5398 -0.7654
vn 0.5988 0.1363 -0.7892
vn 0.2527 0.6188 -0.7438
vn 0.5988 0.1364 -0.7892
vn 0.6032 0.1197 -0.7886
vn 0.2138 0.6359 -0.7416
vn -0.2661 0.6221 -0.7364
vn 0.2526 0.6188 -0.7438
vn 0.2137 0.6360 -0.7415
vn -0.2671 0.6219 -0.7362
vn -0.2662 0.6220 -0.7364
vn -0.2671 0.6218 -0.7362
vn 0.3523 0.5329 -0.7693
vn 0.3523 0.5330 -0.7693
vn -0.2670 0.6219 -0.7362
vn 0.3435 0.5387 -0.7693
vn 0.3427 0.5389 -0.7695
vn 0.3592 0.5281 -0.7695
vn 0.3426 0.5390 -0.7695
vn 0.0007 0.7072 -0.7070
vn 0.3426 0.5389 -0.7695
vn 0.2781 -0.6133 0.7393
vn 0.3552 -0.5368 0.7653
vn 0.3503 -0.5398 0.7654
vn 0.2782 -0.6133 0.7393
vn 0.3503 -0.5398 0.7655
vn 0.2781 -0.6132 0.7393
vn 0.3552 -0.5367 0.7653
vn 0.6032 0.1196 0.7886
vn 0.3504 -0.5397 0.7654
vn 0.2791 -0.6131 0.7391
vn 0.2782 -0.6132 0.7393
vn 0.3553 -0.5367 0.7653
vn 0.5988 0.1363 0.7892
vn 0.0026 -0.7066 0.7076
vn 0.2790 -0.6131 0.7391
vn 0.0027 -0.7067 0.7075
vn 0.2527 0.6188 0.7438
vn 0.5988 0.1364 0.7892
vn 0.6032 0.1197 0.7886
vn 0.2526 0.6188 0.7438
vn 0.2138 0.6359 0.7416
vn -0.2661 0.6221 0.7364
vn 0.2137 0.6360 0.7415
vn -0.2661 0.6220 0.7364
vn -0.2671 0.6218 0.7362
vn -0.2662 0.6220 0.7364
vn -0.2671 0.6219 0.7362
vn 0.3523 0.5329 0.7693
vn -0.2670 0.6219 0.7362
vn 0.3435 0.5387 0.7693
vn 0.3426 0.5389 0.7695
vn 0.3435 0.5387 0.7692
vn 0.3524 0.5329 0.7693
vn 0.3592 0.5281 0.7694
vn 0.3427 0.5389 0.7695
vn 0.0007 0.7072 0.7071
vn 0.3592 0.5281 0.7695
vn 0.0007 0.7072 0.7070
vn -0.0208 -0.4929 -0.8699
vn 0.5479 -0.2800 -0.7883
vn -0.0130 -0.4929 -0.8700
vn -0.5532 -0.2682 -0.7887
vn -0.0209 -0.4928 -0.8699
vn -0.0131 -0.4929 -0.8700
vn -0.0208 -0.4928 -0.8699
vn 0.5848 -0.2291 -0.7781
vn -0.6033 -0.1979 -0.7725
vn 0.5801 0.3132 -0.7519
vn 0.5480 -0.2800 -0.7882
vn 0.5849 -0.2291 -0.7781
vn -0.5884 0.3052 -0.7487
vn -0.6034 -0.1979 -0.7725
vn -0.5532 -0.2681 -0.7887
vn 0.5811 0.3112 -0.7520
vn -0.5902 0.3022 -0.7485
vn -0.0130 0.6278 -0.7782
vn 0.5811 0.3113 -0.7520
vn -0.0131 0.6278 -0.7783
vn -0.5902 0.3023 -0.7485
vn -0.5884 0.3053 -0.7488
vn -0.0130 0.6278 -0.7783
vn -0.0101 0.6278 -0.7783
vn -0.5884 0.3053 -0.7487
vn -0.0102 0.6278 -0.7783
vn -0.0209 -0.4928 0.8699
vn 0.5479 -0.2800 0.7883
vn 0.5848 -0.2291 0.7781
vn 0.5479 -0.2801 0.7883
vn -0.0208 -0.4928 0.8699
vn -0.0130 -0.4929 0.8700
vn 0.5801 0.3132 0.7519
vn 0.5849 -0.2291 0.7781
vn 0.5480 -0.2800 0.7883
vn -0.5532 -0.2682 0.7887
vn -0.0131 -0.4929 0.8700
vn 0.5811 0.3112 0.7520
vn -0.6033 -0.1979 0.7726
vn -0.0130 0.6278 0.7783
vn 0.5811 0.3113 0.7520
vn -0.5884 0.3052 0.7487
vn -0.5532 -0.2681 0.7887
vn -0.6033 -0.1979 0.7725
vn -0.0101 0.6278 0.7783
vn -0.5884 0.3053 0.7488
vn -0.0131 0.6278 0.7783
vn -0.0102 0.6278 0.7783
vn -0.0131 0.6278 0.7782
vn -0.5884 0.3053 0.7487
vn -0.5902 0.3023 0.7485
vn -0.6034 -0.1979 0.7725
vn -0.5902 0.3022 0.7485
vn -0.0003 0.0005 1.0000
vn -0.0003 0.0005 -1.0000
vn -0.0218 0.9998 -0.0005
vn -0.8896 0.4568 -0.0005
vn -0.8896 0.4568 -0.0004
vn -0.0218 0.9998 -0.0004
vn -0.0219 0.9998 -0.0006
vn 0.8794 0.4760 -0.0005
vn -0.0219 0.9998 -0.0005
vn -0.9207 -0.3903 -0.0005
vn 0.8794 0.4760 -0.0004
vn 0.9045 -0.4265 -0.0004
vn -0.0404 -0.9992 -0.0005
vn 0.9045 -0.4265 -0.0005
vn -0.0405 -0.9992 -0.0005
vn -0.0404 -0.9992 -0.0004
vn -0.0405 -0.9992 -0.0004
vt 0.000000 0.000000
s 0
f 1/1/1 2/1/2 3/1/2
f 3/1/3 2/1/3 4/1/4
f 2/1/2 1/1/1 5/1/5
f 4/1/4 2/1/6 6/1/4
f 5/1/1 1/1/5 7/1/7
f 4/1/8 6/1/8 8/1/9
f 7/1/7 9/1/7 5/1/1
f 10/1/10 9/1/7 7/1/7
f 9/1/7 10/1/10 11/1/10
f 12/1/9 4/1/8 8/1/9
f 8/1/11 13/1/12 12/1/11
f 14/1/12 12/1/11 13/1/12
f 14/1/13 13/1/13 15/1/14
f 15/1/14 16/1/15 14/1/13
f 15/1/16 17/1/17 16/1/18
f 18/1/19 16/1/18 17/1/17
f 17/1/19 19/1/17 18/1/17
f 20/1/17 18/1/17 19/1/17
f 20/1/20 19/1/20 21/1/21
f 22/1/21 20/1/20 21/1/21
f 23/1/22 24/1/22 25/1/22
f 26/1/23 24/1/23 23/1/23
f 24/1/23 26/1/23 27/1/23
f 27/1/22 26/1/22 28/1/22
f 29/1/24 30/1/24 31/1/24
f 29/1/25 31/1/25 32/1/25
f 30/1/24 29/1/24 33/1/24
f 30/1/26 33/1/26 34/1/26
f 35/1/27 36/1/28 37/1/29
f 38/1/30 35/1/31 37/1/31
f 35/1/31 38/1/32 39/1/32
f 36/1/28 35/1/29 40/1/28
f 41/1/33 36/1/34 40/1/34
f 36/1/35 41/1/36 42/1/37
f 43/1/38 42/1/39 41/1/40
f 42/1/39 43/1/38 44/1/41
f 45/1/42 44/1/43 43/1/38
f 45/1/42 43/1/44 46/1/45
f 47/1/46 45/1/47 46/1/48
f 47/1/46 46/1/48 48/1/46
f 49/1/49 47/1/50 48/1/50
f 48/1/50 50/1/49 49/1/51
f 51/1/52 49/1/49 50/1/49
f 51/1/53 50/1/54 52/1/55
f 53/1/56 51/1/52 52/1/55
f 51/1/52 53/1/56 54/1/57
f 53/1/58 55/1/59 54/1/57
f 55/1/59 53/1/60 56/1/59
f 57/1/61 58/1/62 59/1/63
f 57/1/64 59/1/65 60/1/66
f 58/1/67 61/1/68 59/1/69
f 62/1/70 57/1/71 60/1/71
f 58/1/72 63/1/73 61/1/68
f 57/1/71 62/1/70 64/1/70
f 65/1/74 64/1/75 62/1/75
f 65/1/76 62/1/75 66/1/76
f 67/1/77 61/1/68 63/1/78
f 61/1/79 67/1/80 68/1/81
f 69/1/82 68/1/83 67/1/80
f 68/1/83 69/1/84 70/1/82
f 71/1/85 70/1/86 69/1/86
f 70/1/86 71/1/85 72/1/87
f 73/1/88 72/1/87 71/1/87
f 72/1/89 73/1/88 74/1/90
f 75/1/91 74/1/92 73/1/93
f 73/1/88 76/1/94 75/1/95
f 77/1/96 75/1/91 76/1/97
f 75/1/91 77/1/98 78/1/98
f 79/1/99 80/1/100 81/1/101
f 82/1/102 79/1/103 81/1/104
f 80/1/100 79/1/105 83/1/106
f 79/1/103 82/1/102 84/1/107
f 85/1/108 80/1/109 83/1/110
f 86/1/111 84/1/112 82/1/113
f 85/1/108 83/1/110 87/1/114
f 84/1/107 86/1/111 88/1/115
f 89/1/116 85/1/108 87/1/117
f 89/1/118 88/1/119 86/1/120
f 85/1/108 89/1/121 90/1/122
f 86/1/123 90/1/124 89/1/118
f 91/1/125 92/1/126 93/1/127
f 92/1/128 91/1/129 94/1/130
f 95/1/131 93/1/132 92/1/133
f 96/1/134 94/1/135 91/1/125
f 93/1/132 95/1/131 97/1/136
f 91/1/125 98/1/137 96/1/134
f 95/1/131 99/1/138 97/1/139
f 100/1/140 96/1/141 98/1/142
f 99/1/138 95/1/131 101/1/143
f 100/1/144 99/1/145 101/1/146
f 99/1/147 100/1/148 102/1/149
f 100/1/140 98/1/150 102/1/151
f 103/1/24 104/1/24 105/1/24
f 106/1/24 104/1/24 103/1/24
f 106/1/152 103/1/152 107/1/152
f 103/1/24 108/1/24 107/1/24
f 109/1/24 105/1/24 104/1/24
f 109/1/24 110/1/24 105/1/24
f 110/1/24 109/1/24 111/1/24
f 112/1/24 111/1/24 109/1/24
f 111/1/24 112/1/24 113/1/24
f 114/1/23 115/1/23 116/1/23
f 116/1/153 115/1/153 117/1/153
f 118/1/23 117/1/23 115/1/23
f 119/1/23 118/1/23 115/1/23
f 118/1/23 119/1/23 120/1/23
f 121/1/23 120/1/23 119/1/23
f 122/1/23 120/1/23 121/1/23
f 120/1/23 122/1/23 123/1/23
f 123/1/23 122/1/23 124/1/23
f 125/1/154 126/1/155 127/1/154
f 126/1/156 125/1/157 128/1/155
f 127/1/158 129/1/159 125/1/160
f 128/1/155 130/1/161 126/1/155
f 131/1/159 129/1/159 127/1/160
f 130/1/161 128/1/155 132/1/161
f 131/1/162 133/1/163 129/1/159
f 132/1/161 134/1/164 130/1/161
f 135/1/165 129/1/159 133/1/165
f 134/1/166 135/1/165 133/1/165
f 134/1/167 132/1/161 136/1/167
f 135/1/165 134/1/166 136/1/168
