# Blender 4.2.16 LTS
# www.blender.org
mtllib keyspraybody.mtl
o RenderMesh_70664687899520
v 0.886329 0.268381 -0.016860
v 0.886329 0.255521 -0.029721
v 0.886329 0.285225 -0.023837
v 0.886329 0.285225 -0.042024
v 0.886329 0.243216 -0.000016
v 0.886329 0.302068 -0.016860
v 0.886329 0.261404 -0.000016
v 0.886329 0.314929 -0.029721
v 0.886329 0.255521 0.029688
v 0.886329 0.327234 -0.000016
v 0.886329 0.268381 0.016828
v 0.886329 0.309046 -0.000016
v 0.886329 0.285225 0.023805
v 0.886329 0.314929 0.029688
v 0.886329 0.285225 0.041992
v 0.886329 0.302068 0.016828
v 0.870349 0.285225 -0.049643
v 0.886329 0.255521 -0.029721
v 0.870349 0.250133 -0.035108
v 0.870349 0.235598 -0.000016
v 0.886329 0.285225 -0.042024
v 0.886329 0.243216 -0.000016
v 0.886329 0.314929 -0.029721
v 0.886329 0.255521 0.029688
v 0.870349 0.320317 -0.035108
v 0.870349 0.250133 0.035075
v 0.870349 0.334852 -0.000016
v 0.870349 0.285225 0.049611
v 0.886329 0.327234 -0.000016
v 0.886329 0.285225 0.041992
v 0.886329 0.314929 0.029688
v 0.870349 0.320317 0.035075
v 0.847820 0.125996 -0.015072
v 0.847820 0.251335 -0.015072
v 0.847820 0.251335 0.015044
v 0.847820 0.125996 0.015044
v 0.886329 0.285225 -0.023837
v 0.689975 0.285225 -0.023838
v 0.886329 0.268381 -0.016860
v 0.689975 0.302068 -0.016861
v 0.886329 0.302068 -0.016860
v 0.689975 0.309046 -0.000017
v 0.886329 0.309046 -0.000016
v 0.689975 0.302068 0.016827
v 0.886329 0.302068 0.016828
v 0.689975 0.285225 0.023804
v 0.886329 0.285225 0.023805
v 0.689975 0.268381 -0.016861
v 0.689975 0.268381 0.016827
v 0.886329 0.268381 0.016828
v 0.886329 0.261404 -0.000016
v 0.689975 0.261404 -0.000017
v 0.539201 0.086182 0.056515
v 0.539201 0.086182 -0.056541
v 0.569201 0.146181 -0.056541
v 0.569201 0.146181 0.056515
v -0.303219 -0.400732 -0.069343
v -0.303219 -0.400732 0.069343
v -0.357973 -0.480339 -0.069343
v -0.321317 -0.369795 -0.069343
v -0.357973 -0.480339 0.069343
v -0.321317 -0.369795 0.069343
v -0.663801 -0.480339 -0.069343
v -0.466049 -0.334795 0.069343
v -0.663801 -0.480339 0.069343
v -0.466049 -0.334795 -0.069343
v -0.683802 -0.460340 0.069343
v -0.648416 -0.337295 0.069343
v -0.683802 -0.460340 -0.069343
v -0.648416 -0.337295 -0.069343
v -0.738783 -0.460340 0.069343
v -0.685261 -0.309250 0.069343
v -0.738783 -0.460340 -0.069343
v -0.685261 -0.309250 -0.069343
v -0.782764 -0.362826 0.069343
v -0.756863 -0.309250 -0.069343
v -0.782764 -0.362826 -0.069343
v -0.756863 -0.309250 0.069343
v 0.539201 0.086182 -0.056541
v 0.551548 0.136046 -0.069642
v 0.569201 0.146181 -0.056541
v 0.530791 0.097394 -0.069936
v 0.539201 0.086182 0.056515
v 0.551548 0.136046 0.069617
v 0.530791 0.097394 0.069910
v 0.569201 0.146181 0.056515
v -0.282363 -0.098234 0.056515
v -0.102363 0.126181 0.056515
v -0.282363 -0.098234 -0.056541
v -0.102363 0.126181 -0.056541
v -0.831574 -0.443374 -0.022259
v -0.831574 -0.443374 0.022258
v -0.886329 -0.400732 -0.022259
v -0.685040 -0.443374 -0.022259
v -0.886329 -0.400732 0.022258
v -0.685040 -0.443374 0.022258
v -0.868230 -0.369795 0.022258
v -0.685040 -0.336045 -0.022259
v -0.868230 -0.369795 -0.022259
v -0.685040 -0.336045 0.022258
v -0.753497 -0.336045 -0.022259
v -0.753497 -0.336045 0.022258
v -0.102363 0.126181 -0.056541
v -0.262203 -0.088561 -0.069566
v -0.282363 -0.098234 -0.056541
v -0.096898 0.114793 -0.070019
v -0.102363 0.126181 0.056515
v -0.282363 -0.098234 0.056515
v -0.262203 -0.088561 0.069541
v -0.096898 0.114793 0.069993
v 0.337637 0.086182 -0.056541
v 0.337637 0.086182 0.056515
v 0.377638 0.146181 -0.056541
v 0.217637 0.086182 -0.056541
v 0.377638 0.146181 0.056515
v 0.569201 0.146181 0.056515
v 0.569201 0.146181 -0.056541
v 0.217637 0.086182 0.056515
v 0.177638 0.126181 -0.056541
v 0.177638 0.126181 0.056515
v -0.102363 0.126181 -0.056541
v -0.102363 0.126181 0.056515
v 0.377638 0.146181 -0.056541
v 0.569201 0.146181 -0.056541
v 0.551548 0.136046 -0.069642
v 0.384031 0.134855 -0.070004
v 0.337637 0.086182 -0.056541
v 0.343822 0.075344 -0.069676
v 0.211996 0.075225 -0.069690
v 0.217637 0.086182 -0.056541
v 0.171928 0.114782 -0.069958
v 0.177638 0.126181 -0.056541
v -0.102363 0.126181 -0.056541
v -0.096898 0.114793 -0.070019
v 0.377638 0.146181 0.056515
v 0.551548 0.136046 0.069617
v 0.569201 0.146181 0.056515
v 0.384031 0.134855 0.069978
v 0.337637 0.086182 0.056515
v 0.343822 0.075344 0.069651
v 0.211996 0.075225 0.069665
v 0.217637 0.086182 0.056515
v 0.171928 0.114782 0.069932
v 0.177638 0.126181 0.056515
v -0.102363 0.126181 0.056515
v -0.096898 0.114793 0.069993
v -0.109134 0.250133 0.035075
v -0.109134 0.285225 0.049611
v -0.109134 0.320317 0.035075
v -0.109134 0.334852 -0.000016
v -0.109134 0.235598 -0.000016
v -0.109134 0.285225 -0.049643
v -0.109134 0.250133 -0.035108
v -0.109134 0.320317 -0.035108
v -0.769521 -0.363002 -0.080619
v -0.689309 -0.321250 -0.080619
v -0.652390 -0.349351 -0.080619
v -0.749336 -0.321250 -0.080619
v -0.731030 -0.448339 -0.080619
v -0.678831 -0.448339 -0.080619
v -0.658831 -0.468340 -0.080619
v -0.467398 -0.346815 -0.080619
v -0.364284 -0.468340 -0.080619
v -0.329099 -0.380259 -0.080619
v -0.317427 -0.400212 -0.080619
v -0.652390 -0.349351 0.080619
v -0.658831 -0.468340 0.080619
v -0.467398 -0.346815 0.080619
v -0.364284 -0.468340 0.080619
v -0.329099 -0.380259 0.080619
v -0.317427 -0.400212 0.080619
v -0.678831 -0.448339 0.080619
v -0.731030 -0.448339 0.080619
v -0.769521 -0.363002 0.080619
v -0.689309 -0.321250 0.080619
v -0.749336 -0.321250 0.080619
v -0.685261 -0.309250 -0.069343
v -0.749336 -0.321250 -0.080619
v -0.756863 -0.309250 -0.069343
v -0.782764 -0.362826 -0.069343
v -0.689309 -0.321250 -0.080619
v -0.769521 -0.363002 -0.080619
v -0.648416 -0.337295 -0.069343
v -0.731030 -0.448339 -0.080619
v -0.652390 -0.349351 -0.080619
v -0.738783 -0.460340 -0.069343
v -0.467398 -0.346815 -0.080619
v -0.683802 -0.460340 -0.069343
v -0.466049 -0.334795 -0.069343
v -0.678831 -0.448339 -0.080619
v -0.329099 -0.380259 -0.080619
v -0.658831 -0.468340 -0.080619
v -0.321317 -0.369795 -0.069343
v -0.663801 -0.480339 -0.069343
v -0.317427 -0.400212 -0.080619
v -0.364284 -0.468340 -0.080619
v -0.303219 -0.400732 -0.069343
v -0.357973 -0.480339 -0.069343
v -0.685261 -0.309250 0.069343
v -0.756863 -0.309250 0.069343
v -0.749336 -0.321250 0.080619
v -0.782764 -0.362826 0.069343
v -0.689309 -0.321250 0.080619
v -0.769521 -0.363002 0.080619
v -0.648416 -0.337295 0.069343
v -0.731030 -0.448339 0.080619
v -0.652390 -0.349351 0.080619
v -0.738783 -0.460340 0.069343
v -0.467398 -0.346815 0.080619
v -0.683802 -0.460340 0.069343
v -0.466049 -0.334795 0.069343
v -0.678831 -0.448339 0.080619
v -0.329099 -0.380259 0.080619
v -0.658831 -0.468340 0.080619
v -0.321317 -0.369795 0.069343
v -0.663801 -0.480339 0.069343
v -0.317427 -0.400212 0.080619
v -0.364284 -0.468340 0.080619
v -0.303219 -0.400732 0.069343
v -0.357973 -0.480339 0.069343
v 0.343822 0.075344 -0.069676
v 0.430537 0.096940 -0.069636
v 0.390419 0.037482 -0.069958
v 0.251844 0.037085 -0.069688
v 0.384031 0.134855 -0.070004
v 0.551548 0.136046 -0.069642
v 0.530791 0.097394 -0.069936
v 0.211996 0.075225 -0.069690
v 0.211688 -0.012450 -0.069991
v 0.171928 0.114782 -0.069958
v -0.096898 0.114793 -0.070019
v -0.137601 -0.012867 -0.069711
v -0.262203 -0.088561 -0.069566
v -0.197810 -0.086846 -0.070018
v 0.251844 0.037085 0.069662
v 0.390419 0.037482 0.069932
v 0.343822 0.075344 0.069651
v 0.430537 0.096940 0.069610
v 0.211996 0.075225 0.069665
v 0.384031 0.134855 0.069978
v 0.551548 0.136046 0.069617
v 0.530791 0.097394 0.069910
v 0.211688 -0.012450 0.069965
v 0.171928 0.114782 0.069932
v -0.096898 0.114793 0.069993
v -0.137601 -0.012867 0.069686
v -0.262203 -0.088561 0.069541
v -0.197810 -0.086846 0.069992
v -0.663260 -0.093466 -0.064575
v -0.204886 -0.093466 -0.064575
v -0.277829 -0.156721 -0.064575
v -0.204535 -0.146698 -0.064575
v -0.193639 -0.119328 -0.064575
v -0.330905 -0.237394 -0.064575
v -0.714244 -0.385326 -0.064575
v -0.323983 -0.385326 -0.064575
v -0.309238 -0.309759 -0.064575
v -0.714244 -0.385326 0.064549
v -0.330905 -0.237394 0.064549
v -0.663260 -0.093466 0.064549
v -0.323983 -0.385326 0.064549
v -0.309238 -0.309759 0.064549
v -0.277829 -0.156721 0.064549
v -0.204886 -0.093466 0.064549
v -0.204535 -0.146698 0.064549
v -0.193639 -0.119328 0.064549
v -0.312362 -0.399625 -0.053134
v -0.735895 -0.399625 -0.053134
v -0.714244 -0.385326 -0.064575
v -0.677000 -0.079626 -0.053134
v -0.323983 -0.385326 -0.064575
v -0.663260 -0.093466 -0.064575
v -0.293265 -0.307625 -0.053134
v -0.198293 -0.079626 -0.053134
v -0.309238 -0.309759 -0.064575
v -0.204886 -0.093466 -0.064575
v -0.316052 -0.235625 -0.053134
v -0.180222 -0.118070 -0.053134
v -0.330905 -0.237394 -0.064575
v -0.193639 -0.119328 -0.064575
v -0.277829 -0.156721 -0.064575
v -0.204535 -0.146698 -0.064575
v -0.268176 -0.167626 -0.053134
v -0.195971 -0.157626 -0.053134
v -0.192363 -0.098234 -0.056541
v -0.282363 -0.098234 -0.056541
v -0.262203 -0.088561 -0.069566
v -0.197810 -0.086846 -0.070018
v -0.293265 -0.307625 0.053108
v -0.323983 -0.385326 0.064549
v -0.312362 -0.399625 0.053108
v -0.309238 -0.309759 0.064549
v -0.714244 -0.385326 0.064549
v -0.316052 -0.235625 0.053108
v -0.735895 -0.399625 0.053108
v -0.330905 -0.237394 0.064549
v -0.677000 -0.079626 0.053108
v -0.277829 -0.156721 0.064549
v -0.663260 -0.093466 0.064549
v -0.268176 -0.167626 0.053108
v -0.198293 -0.079626 0.053108
v -0.204535 -0.146698 0.064549
v -0.204886 -0.093466 0.064549
v -0.195971 -0.157626 0.053108
v -0.180222 -0.118070 0.053108
v -0.193639 -0.119328 0.064549
v -0.192363 -0.098234 0.056515
v -0.262203 -0.088561 0.069541
v -0.282363 -0.098234 0.056515
v -0.197810 -0.086846 0.069992
v -0.735895 -0.399625 0.053108
v -0.316052 -0.235625 0.053108
v -0.677000 -0.079626 0.053108
v -0.312362 -0.399625 0.053108
v -0.293265 -0.307625 0.053108
v -0.268176 -0.167626 0.053108
v -0.198293 -0.079626 0.053108
v -0.195971 -0.157626 0.053108
v -0.180222 -0.118070 0.053108
v -0.697039 -0.348045 -0.033254
v -0.697039 -0.431373 -0.033254
v -0.752118 -0.348045 -0.033254
v -0.825978 -0.431373 -0.033254
v -0.860478 -0.380309 -0.033254
v -0.871702 -0.399496 -0.033254
v -0.697039 -0.431373 0.033253
v -0.752118 -0.348045 0.033253
v -0.825978 -0.431373 0.033253
v -0.697039 -0.348045 0.033253
v -0.860478 -0.380309 0.033253
v -0.871702 -0.399496 0.033253
v -0.282363 -0.098234 -0.056541
v -0.192363 -0.098234 -0.056541
v -0.282363 -0.098234 0.056515
v -0.192363 -0.098234 0.056515
v -0.868230 -0.369795 -0.022259
v -0.871702 -0.399496 -0.033254
v -0.886329 -0.400732 -0.022259
v -0.831574 -0.443374 -0.022259
v -0.860478 -0.380309 -0.033254
v -0.825978 -0.431373 -0.033254
v -0.753497 -0.336045 -0.022259
v -0.697039 -0.431373 -0.033254
v -0.752118 -0.348045 -0.033254
v -0.685040 -0.443374 -0.022259
v -0.697039 -0.348045 -0.033254
v -0.685040 -0.336045 -0.022259
v -0.868230 -0.369795 0.022258
v -0.886329 -0.400732 0.022258
v -0.871702 -0.399496 0.033253
v -0.831574 -0.443374 0.022258
v -0.860478 -0.380309 0.033253
v -0.825978 -0.431373 0.033253
v -0.753497 -0.336045 0.022258
v -0.697039 -0.431373 0.033253
v -0.752118 -0.348045 0.033253
v -0.685040 -0.443374 0.022258
v -0.697039 -0.348045 0.033253
v -0.685040 -0.336045 0.022258
v 0.530791 0.097394 -0.069936
v 0.437638 0.086182 -0.056541
v 0.430537 0.096940 -0.069636
v 0.539201 0.086182 -0.056541
v 0.390419 0.037482 -0.069958
v 0.397637 0.026182 -0.056541
v 0.257638 0.026182 -0.056541
v 0.251844 0.037085 -0.069688
v 0.211688 -0.012450 -0.069991
v 0.217637 -0.023819 -0.056541
v -0.132363 -0.023819 -0.056541
v -0.137601 -0.012867 -0.069711
v -0.197810 -0.086846 -0.070018
v -0.192363 -0.098234 -0.056541
v 0.437638 0.086182 0.056515
v 0.539201 0.086182 0.056515
v 0.530791 0.097394 0.069910
v 0.430537 0.096940 0.069610
v 0.390419 0.037482 0.069932
v 0.397637 0.026182 0.056515
v 0.257638 0.026182 0.056515
v 0.251844 0.037085 0.069662
v 0.211688 -0.012450 0.069965
v 0.217637 -0.023819 0.056515
v -0.132363 -0.023819 0.056515
v -0.137601 -0.012867 0.069686
v -0.197810 -0.086846 0.069992
v -0.192363 -0.098234 0.056515
v 0.847820 0.125996 -0.015072
v 0.810968 0.199952 -0.015072
v 0.847820 0.251335 -0.015072
v 0.810968 0.125996 -0.015072
v 0.792540 0.209203 -0.015072
v 0.663554 0.251335 -0.015072
v 0.718834 0.209203 -0.015072
v 0.774113 0.199952 -0.015072
v 0.700407 0.199952 -0.015072
v 0.663554 0.149030 -0.015072
v 0.700407 0.149029 -0.015072
v 0.737261 0.199952 -0.015072
v 0.737261 0.156830 -0.015072
v 0.774113 0.156830 -0.015072
v 0.718834 0.209203 0.015044
v 0.774113 0.199952 0.015044
v 0.792540 0.209203 0.015044
v 0.737261 0.199952 0.015044
v 0.774113 0.156830 0.015044
v 0.737261 0.156830 0.015044
v 0.663554 0.251335 0.015044
v 0.700407 0.199952 0.015044
v 0.663554 0.149030 0.015044
v 0.700407 0.149029 0.015044
v 0.847820 0.251335 0.015044
v 0.810968 0.199952 0.015044
v 0.847820 0.125996 0.015044
v 0.810968 0.125996 0.015044
v 0.397637 0.026182 0.056515
v 0.397637 0.026182 -0.056541
v 0.437638 0.086182 -0.056541
v 0.257638 0.026182 0.056515
v 0.437638 0.086182 0.056515
v 0.539201 0.086182 -0.056541
v 0.539201 0.086182 0.056515
v 0.257638 0.026182 -0.056541
v 0.217637 -0.023819 0.056515
v 0.217637 -0.023819 -0.056541
v -0.132363 -0.023819 0.056515
v -0.132363 -0.023819 -0.056541
v -0.192363 -0.098234 0.056515
v -0.192363 -0.098234 -0.056541
v 0.737261 0.156830 -0.015072
v 0.737261 0.199952 0.015044
v 0.737261 0.199952 -0.015072
v 0.737261 0.156830 0.015044
v 0.718834 0.209203 -0.015072
v 0.718834 0.209203 0.015044
v 0.700407 0.199952 -0.015072
v 0.700407 0.199952 0.015044
v 0.700407 0.149029 0.015044
v 0.700407 0.149029 -0.015072
v 0.847820 0.125996 -0.015072
v 0.847820 0.125996 0.015044
v 0.810968 0.125996 -0.015072
v 0.810968 0.125996 0.015044
v 0.700407 0.149029 -0.015072
v 0.700407 0.149029 0.015044
v 0.663554 0.149030 -0.015072
v 0.663554 0.149030 0.015044
v 0.774113 0.156830 0.015044
v 0.737261 0.156830 -0.015072
v 0.774113 0.156830 -0.015072
v 0.737261 0.156830 0.015044
v -0.312362 -0.399625 -0.053134
v -0.293265 -0.307625 -0.053134
v -0.312362 -0.399625 0.053108
v -0.735895 -0.399625 -0.053134
v -0.293265 -0.307625 0.053108
v -0.735895 -0.399625 0.053108
v -0.316052 -0.235625 -0.053134
v -0.677000 -0.079626 0.053108
v -0.316052 -0.235625 0.053108
v -0.677000 -0.079626 -0.053134
v -0.268176 -0.167626 -0.053134
v -0.198293 -0.079626 -0.053134
v -0.268176 -0.167626 0.053108
v -0.198293 -0.079626 0.053108
v -0.195971 -0.157626 -0.053134
v -0.180222 -0.118070 0.053108
v -0.195971 -0.157626 0.053108
v -0.180222 -0.118070 -0.053134
v 0.870349 0.285225 -0.049643
v -0.109134 0.250133 -0.035108
v -0.109134 0.285225 -0.049643
v 0.870349 0.250133 -0.035108
v 0.870349 0.320317 -0.035108
v -0.109134 0.235598 -0.000016
v -0.109134 0.320317 -0.035108
v 0.870349 0.235598 -0.000016
v 0.870349 0.334852 -0.000016
v -0.109134 0.250133 0.035075
v -0.109134 0.334852 -0.000016
v 0.870349 0.250133 0.035075
v 0.870349 0.320317 0.035075
v 0.870349 0.285225 0.049611
v -0.109134 0.320317 0.035075
v -0.109134 0.285225 0.049611
v 0.663554 0.149030 0.015044
v 0.663554 0.251335 -0.015072
v 0.663554 0.149030 -0.015072
v 0.663554 0.251335 0.015044
v 0.810968 0.125996 -0.015072
v 0.810968 0.199952 0.015044
v 0.810968 0.199952 -0.015072
v 0.810968 0.125996 0.015044
v 0.792540 0.209203 -0.015072
v 0.792540 0.209203 0.015044
v 0.774113 0.199952 -0.015072
v 0.774113 0.199952 0.015044
v 0.774113 0.156830 0.015044
v 0.774113 0.156830 -0.015072
vn 1.0000 0.0005 0.0005
vn 0.4305 0.0005 -0.9026
vn 0.4302 -0.6383 -0.6383
vn 0.4303 -0.6383 -0.6383
vn 0.4305 -0.9026 0.0005
vn 0.4302 0.6383 -0.6384
vn 0.4303 -0.6383 0.6383
vn 0.4303 0.6383 -0.6383
vn 0.4302 -0.6383 0.6383
vn 0.4305 0.9026 0.0005
vn 0.4302 0.6383 -0.6383
vn 0.4305 0.0004 0.9026
vn 0.4302 0.6384 0.6383
vn 0.4303 0.6383 0.6383
vn 0.4305 0.0005 0.9026
vn 0.4302 0.6383 0.6383
vn 0.0005 0.0005 1.0000
vn 0.6306 0.0005 0.7761
vn -0.0000 0.7071 0.7071
vn 0.6308 -0.5487 0.5487
vn 0.0005 -0.7071 0.7071
vn -0.0000 0.0005 1.0000
vn 0.6306 -0.7761 0.0004
vn 0.6305 -0.7761 0.0006
vn 0.6305 0.0006 0.7761
vn 0.6307 -0.5487 0.5488
vn 0.0005 -1.0000 0.0005
vn 0.6306 -0.7761 0.0005
vn -0.0000 -0.7071 0.7071
vn 0.0005 -1.0000 0.0004
vn 0.6308 -0.5486 -0.5487
vn 0.0005 -0.7071 -0.7071
vn 0.6308 -0.5487 -0.5486
vn -0.0000 -1.0000 0.0004
vn 0.6305 0.0004 -0.7762
vn 0.6305 -0.7762 0.0006
vn 0.6307 -0.5487 -0.5487
vn 0.6308 -0.5487 -0.5487
vn 0.6306 0.0005 -0.7761
vn 0.6305 -0.0000 -0.7762
vn 0.6305 0.0004 0.7762
vn 0.6305 -0.7762 0.0005
vn 0.0005 0.0005 -1.0000
vn -0.0000 -0.7071 -0.7071
vn 0.6308 0.5487 0.5486
vn 0.0005 0.7071 0.7071
vn 0.6308 0.5487 -0.5487
vn 0.0005 0.7071 -0.7071
vn -0.0000 0.0005 -1.0000
vn 0.0005 1.0000 0.0004
vn -0.0000 0.7071 -0.7071
vn 0.6305 0.7762 0.0004
vn 0.6307 0.5487 -0.5487
vn 0.6306 0.7761 0.0005
vn 0.6305 -0.0000 0.7762
vn 0.6305 0.0006 -0.7762
vn 0.6305 0.7762 0.0005
vn -0.0000 1.0000 0.0005
vn 0.6306 0.0006 0.7761
vn 0.6306 0.7761 0.0004
vn 0.6307 0.5487 0.5487
vn 0.6308 0.5486 0.5487
vn 0.8945 -0.4470 0.0005
vn 0.8945 -0.4470 0.0004
vn 0.9993 -0.0366 0.0005
vn 0.4657 -0.8849 0.0005
vn 0.5965 0.8026 0.0005
vn 0.9993 -0.0367 0.0005
vn -0.3825 -0.9239 0.0005
vn 0.1119 0.9937 0.0005
vn -0.3825 -0.9239 0.0004
vn -0.3826 -0.9239 0.0005
vn 0.1118 0.9937 0.0005
vn 0.3130 0.9498 -0.0000
vn -0.3826 -0.9239 -0.0000
vn 0.3130 0.9498 0.0005
vn -0.3825 -0.9239 -0.0000
vn -0.5428 -0.8399 0.0005
vn 0.3130 0.9497 0.0005
vn 0.3201 0.9474 0.0005
vn 0.3130 0.9497 -0.0000
vn -0.9999 0.0132 0.0005
vn -0.5309 0.8474 0.0005
vn 0.3200 0.9474 0.0005
vn 0.6637 -0.3394 -0.6666
vn 0.6637 -0.3394 0.6666
vn -0.7801 0.6257 0.0005
vn -0.7801 0.6257 0.0006
vn -0.3247 -0.9458 0.0005
vn -0.9820 -0.1889 0.0004
vn 0.7071 -0.7071 0.0004
vn -0.9820 -0.1889 0.0005
vn -0.3248 -0.9458 0.0005
vn 0.7071 -0.7071 0.0005
vn -0.9820 -0.1890 0.0005
vn -0.9820 -0.1890 0.0004
vn -0.6159 0.7878 0.0005
vn 0.7071 0.7071 0.0005
vn -0.1421 0.9898 0.0005
vn -0.1421 0.9899 0.0005
vn 0.7071 0.7071 0.0004
vn -0.6098 0.4917 -0.6216
vn -0.6099 0.4917 0.6215
vn -0.6098 0.4917 0.6216
vn -0.4715 0.8819 0.0005
vn -0.4715 0.8819 -0.0000
vn 0.3825 0.9239 0.0005
vn 0.0005 1.0000 0.0005
vn 0.3825 0.9239 -0.0000
vn 0.3826 0.9239 0.0005
vn 0.3826 0.9239 -0.0000
vn -0.3436 0.6417 -0.6857
vn -0.0024 0.7783 -0.6278
vn -0.3375 0.6453 -0.6853
vn -0.3376 0.6453 -0.6853
vn -0.3358 0.6406 -0.6905
vn -0.3358 0.6407 -0.6905
vn -0.3444 0.6354 -0.6911
vn 0.2866 0.6716 -0.6833
vn -0.3357 0.6407 -0.6905
vn -0.3443 0.6355 -0.6911
vn 0.2663 0.6816 -0.6816
vn 0.2672 0.6765 -0.6863
vn 0.2663 0.6815 -0.6816
vn 0.2867 0.6715 -0.6832
vn 0.2849 0.6689 -0.6865
vn 0.2671 0.6765 -0.6863
vn 0.0005 0.7628 -0.6466
vn 0.2848 0.6690 -0.6865
vn 0.0005 0.7629 -0.6465
vn -0.3436 0.6417 0.6857
vn -0.0024 0.7783 0.6278
vn -0.3375 0.6453 0.6853
vn -0.3358 0.6407 0.6905
vn -0.3376 0.6453 0.6853
vn -0.3376 0.6452 0.6854
vn -0.3444 0.6354 0.6911
vn 0.2867 0.6716 0.6832
vn -0.3443 0.6355 0.6911
vn -0.3357 0.6407 0.6905
vn 0.2866 0.6716 0.6833
vn 0.2662 0.6816 0.6816
vn 0.2672 0.6765 0.6863
vn 0.2867 0.6715 0.6833
vn 0.2663 0.6816 0.6816
vn 0.2849 0.6689 0.6865
vn 0.0005 0.7629 0.6466
vn 0.2671 0.6765 0.6863
vn 0.2848 0.6690 0.6865
vn 0.0005 0.7629 0.6465
vn -1.0000 0.0005 0.0005
vn 0.2125 0.6298 -0.7471
vn -0.3309 0.5274 -0.7825
vn -0.6482 0.0083 -0.7614
vn -0.3310 0.5274 -0.7825
vn 0.2125 0.6299 -0.7471
vn -0.6482 0.0083 -0.7615
vn -0.6481 0.0083 -0.7615
vn 0.2077 0.6306 -0.7478
vn 0.2126 0.6298 -0.7471
vn -0.3366 -0.5202 -0.7849
vn 0.2076 0.6306 -0.7478
vn 0.0757 0.6777 -0.7314
vn -0.2507 -0.6057 -0.7552
vn -0.3365 -0.5202 -0.7849
vn -0.3365 -0.5202 -0.7850
vn -0.2507 -0.6056 -0.7552
vn 0.3902 0.5250 -0.7564
vn -0.2508 -0.6056 -0.7552
vn 0.3901 0.5250 -0.7564
vn 0.3902 0.5249 -0.7564
vn 0.6211 -0.0229 -0.7834
vn 0.2976 -0.5663 -0.7686
vn 0.6212 -0.0229 -0.7834
vn 0.2975 -0.5663 -0.7686
vn 0.6211 -0.0230 -0.7834
vn 0.6212 -0.0230 -0.7833
vn 0.2125 0.6298 0.7471
vn -0.3309 0.5274 0.7825
vn -0.6481 0.0083 0.7615
vn -0.6482 0.0083 0.7615
vn 0.2126 0.6298 0.7471
vn 0.2077 0.6306 0.7478
vn -0.6481 0.0082 0.7615
vn -0.3366 -0.5202 0.7849
vn 0.0757 0.6777 0.7314
vn 0.2076 0.6306 0.7478
vn -0.2507 -0.6056 0.7552
vn -0.3365 -0.5202 0.7849
vn -0.2507 -0.6057 0.7552
vn 0.3901 0.5250 0.7564
vn -0.2508 -0.6056 0.7552
vn 0.3902 0.5250 0.7564
vn 0.6211 -0.0229 0.7834
vn 0.3902 0.5249 0.7564
vn 0.2976 -0.5664 0.7686
vn 0.2975 -0.5663 0.7686
vn 0.2976 -0.5663 0.7686
vn 0.6211 -0.0230 0.7834
vn 0.6212 -0.0230 0.7834
vn -0.0005 -0.0005 -1.0000
vn -0.0005 -0.0005 1.0000
vn 0.3268 -0.4060 -0.8534
vn -0.3375 -0.2486 -0.9079
vn -0.2907 -0.3122 -0.9044
vn -0.3131 0.3766 -0.8719
vn -0.3375 -0.2485 -0.9079
vn 0.3278 -0.4050 -0.8535
vn -0.2840 0.4062 -0.8685
vn 0.5927 0.0347 -0.8047
vn 0.3268 -0.4060 -0.8535
vn 0.3279 -0.4050 -0.8535
vn 0.3062 0.5075 -0.8054
vn -0.2839 0.4062 -0.8686
vn 0.5935 0.0220 -0.8045
vn 0.3493 0.4833 -0.8028
vn 0.5849 -0.1343 -0.7999
vn 0.6553 0.0250 -0.7550
vn 0.3494 0.4832 -0.8028
vn 0.3063 0.5075 -0.8054
vn 0.5868 -0.0571 -0.8077
vn 0.5869 -0.1344 -0.7984
vn 0.6560 0.0064 -0.7547
vn 0.3602 -0.5341 -0.7648
vn 0.5849 -0.1344 -0.7999
vn 0.5868 -0.0572 -0.8077
vn 0.6553 0.0249 -0.7550
vn 0.3915 -0.4999 -0.7726
vn 0.6560 0.0063 -0.7547
vn 0.3199 -0.5612 -0.7634
vn 0.3914 -0.4999 -0.7726
vn 0.3601 -0.5342 -0.7648
vn 0.3923 -0.4997 -0.7723
vn 0.3914 -0.5000 -0.7726
vn 0.3922 -0.4998 -0.7723
vn 0.0073 -0.7848 -0.6197
vn 0.5927 0.0347 0.8047
vn 0.3278 -0.4050 0.8535
vn 0.3268 -0.4060 0.8535
vn 0.3279 -0.4050 0.8535
vn 0.5935 0.0220 0.8045
vn -0.2907 -0.3122 0.9044
vn 0.3268 -0.4060 0.8534
vn 0.5849 -0.1343 0.7999
vn -0.2907 -0.3123 0.9044
vn -0.3375 -0.2486 0.9079
vn 0.5868 -0.0571 0.8077
vn -0.3131 0.3766 0.8719
vn -0.3375 -0.2485 0.9079
vn 0.3602 -0.5341 0.7648
vn 0.5869 -0.0572 0.8077
vn 0.5849 -0.1344 0.7999
vn -0.3131 0.3765 0.8719
vn -0.2840 0.4062 0.8685
vn 0.3199 -0.5612 0.7634
vn 0.3062 0.5075 0.8054
vn -0.2839 0.4062 0.8685
vn 0.3914 -0.5000 0.7726
vn 0.3601 -0.5341 0.7648
vn -0.2839 0.4062 0.8686
vn 0.3493 0.4833 0.8028
vn 0.3922 -0.4997 0.7723
vn 0.6553 0.0250 0.7549
vn 0.3063 0.5075 0.8054
vn 0.3494 0.4832 0.8028
vn 0.6553 0.0249 0.7550
vn 0.3915 -0.4999 0.7726
vn 0.3923 -0.4997 0.7723
vn 0.6560 0.0064 0.7547
vn 0.6560 0.0063 0.7547
vn 0.0073 -0.7848 0.6197
vn -0.3962 0.5114 -0.7625
vn -0.5571 -0.1441 -0.8178
vn -0.5683 -0.0855 -0.8184
vn -0.2253 -0.6289 -0.7442
vn -0.4019 0.5074 -0.7623
vn -0.5571 -0.1441 -0.8179
vn -0.2007 -0.6353 -0.7457
vn -0.2253 -0.6288 -0.7442
vn -0.0943 0.6638 -0.7419
vn -0.3962 0.5115 -0.7625
vn 0.3846 -0.3847 -0.8391
vn -0.2252 -0.6289 -0.7442
vn -0.2007 -0.6354 -0.7457
vn -0.0973 0.6631 -0.7422
vn 0.3846 -0.3846 -0.8391
vn -0.0942 0.6638 -0.7419
vn 0.3846 0.3846 -0.8391
vn -0.0972 0.6631 -0.7422
vn 0.3847 -0.3846 -0.8391
vn -0.0942 0.6638 -0.7420
vn 0.3846 -0.3846 -0.8392
vn -0.3962 0.5115 0.7625
vn -0.5683 -0.0855 0.8184
vn -0.5571 -0.1440 0.8179
vn -0.2253 -0.6289 0.7442
vn -0.5571 -0.1441 0.8178
vn -0.5682 -0.0855 0.8184
vn -0.3962 0.5114 0.7626
vn -0.4019 0.5073 0.7623
vn -0.2253 -0.6288 0.7442
vn -0.2008 -0.6353 0.7457
vn -0.0943 0.6638 0.7419
vn -0.3961 0.5115 0.7625
vn -0.4019 0.5074 0.7623
vn -0.2252 -0.6289 0.7442
vn 0.3846 -0.3846 0.8391
vn -0.2007 -0.6353 0.7457
vn -0.0973 0.6631 0.7422
vn 0.3846 0.3846 0.8391
vn -0.0942 0.6638 0.7419
vn -0.0972 0.6631 0.7422
vn 0.0005 -0.7695 -0.6386
vn 0.3190 -0.6376 -0.7012
vn 0.3453 -0.6218 -0.7029
vn 0.3199 -0.6354 -0.7028
vn 0.3454 -0.6218 -0.7029
vn 0.3191 -0.6376 -0.7012
vn 0.3426 -0.6220 -0.7041
vn 0.3082 -0.6589 -0.6862
vn 0.3425 -0.6221 -0.7041
vn 0.3188 -0.6529 -0.6871
vn 0.3082 -0.6579 -0.6872
vn 0.3189 -0.6529 -0.6871
vn 0.3071 -0.6566 -0.6889
vn 0.3172 -0.6533 -0.6875
vn 0.3160 -0.6610 -0.6805
vn 0.3171 -0.6533 -0.6875
vn 0.3161 -0.6610 -0.6805
vn 0.5965 -0.4812 -0.6424
vn 0.3162 -0.6610 -0.6805
vn 0.3190 -0.6377 0.7012
vn 0.0005 -0.7695 0.6386
vn 0.3453 -0.6218 0.7029
vn 0.3191 -0.6377 0.7011
vn 0.3199 -0.6354 0.7028
vn 0.3191 -0.6376 0.7012
vn 0.3454 -0.6218 0.7029
vn 0.3202 -0.6393 0.6991
vn 0.3426 -0.6220 0.7041
vn 0.3082 -0.6589 0.6862
vn 0.3425 -0.6220 0.7041
vn 0.3188 -0.6529 0.6871
vn 0.3082 -0.6579 0.6872
vn 0.3189 -0.6529 0.6870
vn 0.3172 -0.6533 0.6875
vn 0.3160 -0.6610 0.6805
vn 0.3171 -0.6533 0.6875
vn 0.3161 -0.6610 0.6805
vn 0.5965 -0.4812 0.6424
vn 0.3161 -0.6610 0.6806
vn 0.4715 -0.8819 0.0004
vn 0.4715 -0.8819 0.0005
vn 0.4333 -0.9013 0.0005
vn 0.4715 -0.8819 -0.0000
vn 0.4333 -0.9013 -0.0000
vn 0.4333 -0.9012 0.0005
vn 0.4333 -0.9012 -0.0000
vn 0.4313 -0.9022 0.0005
vn 0.4313 -0.9022 -0.0000
vn 0.7783 -0.6279 0.0006
vn 0.7783 -0.6279 0.0005
vn -0.8511 -0.5249 0.0005
vn -0.8511 -0.5249 -0.0000
vn 0.0005 -1.0000 -0.0000
vn 0.8511 -0.5249 -0.0000
vn 0.8511 -0.5249 0.0005
vn 0.6316 -0.7753 0.0005
vn 0.9987 0.0513 0.0005
vn 0.6316 -0.7753 0.0004
vn -0.7687 -0.6396 0.0005
vn 0.6317 -0.7752 0.0005
vn 0.9882 -0.1529 0.0005
vn -0.7687 -0.6397 0.0004
vn -0.6396 0.7687 0.0005
vn 0.9882 -0.1529 -0.0000
vn -0.6396 0.7687 0.0006
vn 0.5205 -0.8538 0.0005
vn 0.5357 0.8444 0.0005
vn -0.6397 0.7686 0.0005
vn 0.5205 -0.8538 -0.0000
vn 0.5357 0.8444 0.0004
vn 0.5205 -0.8539 -0.0000
vn 0.6170 -0.7870 0.0005
vn 0.5205 -0.8539 0.0005
vn 0.9995 0.0308 0.0005
vn 0.9995 0.0307 0.0005
vn -0.8512 -0.5249 0.0005
vn -0.8512 -0.5249 -0.0000
vt 0.000000 0.000000
s 0
f 1/1/1 2/1/1 3/1/1
f 2/1/1 4/1/1 3/1/1
f 5/1/1 2/1/1 1/1/1
f 4/1/1 6/1/1 3/1/1
f 5/1/1 1/1/1 7/1/1
f 6/1/1 4/1/1 8/1/1
f 7/1/1 9/1/1 5/1/1
f 10/1/1 6/1/1 8/1/1
f 9/1/1 7/1/1 11/1/1
f 6/1/1 10/1/1 12/1/1
f 13/1/1 9/1/1 11/1/1
f 14/1/1 12/1/1 10/1/1
f 9/1/1 13/1/1 15/1/1
f 12/1/1 14/1/1 16/1/1
f 16/1/1 15/1/1 13/1/1
f 15/1/1 16/1/1 14/1/1
f 17/1/2 18/1/3 19/1/4
f 18/1/4 20/1/5 19/1/4
f 18/1/4 17/1/2 21/1/2
f 20/1/5 18/1/3 22/1/5
f 17/1/2 23/1/6 21/1/2
f 24/1/7 20/1/5 22/1/5
f 23/1/8 17/1/2 25/1/8
f 20/1/5 24/1/7 26/1/9
f 27/1/10 23/1/11 25/1/8
f 24/1/7 28/1/12 26/1/7
f 23/1/8 27/1/10 29/1/10
f 28/1/12 24/1/9 30/1/12
f 29/1/10 27/1/10 31/1/13
f 31/1/14 28/1/15 30/1/15
f 27/1/10 32/1/14 31/1/14
f 28/1/15 31/1/16 32/1/14
f 33/1/1 34/1/1 35/1/1
f 33/1/1 35/1/1 36/1/1
f 37/1/17 38/1/18 39/1/19
f 38/1/18 37/1/17 40/1/20
f 41/1/21 40/1/20 37/1/22
f 40/1/20 41/1/21 42/1/23
f 42/1/24 38/1/25 40/1/26
f 43/1/27 42/1/28 41/1/29
f 42/1/28 43/1/30 44/1/31
f 45/1/32 44/1/33 43/1/34
f 46/1/35 42/1/36 44/1/37
f 44/1/38 45/1/32 46/1/39
f 46/1/40 38/1/41 42/1/42
f 47/1/43 46/1/39 45/1/44
f 48/1/45 39/1/46 38/1/18
f 46/1/39 47/1/43 49/1/47
f 50/1/48 49/1/47 47/1/49
f 51/1/50 49/1/47 50/1/51
f 52/1/52 46/1/35 49/1/53
f 49/1/47 51/1/50 52/1/54
f 38/1/55 46/1/56 52/1/57
f 39/1/46 52/1/54 51/1/58
f 38/1/59 52/1/60 48/1/61
f 52/1/54 39/1/46 48/1/62
f 53/1/63 54/1/63 55/1/63
f 55/1/64 56/1/64 53/1/64
f 57/1/65 58/1/65 59/1/66
f 60/1/67 58/1/68 57/1/68
f 59/1/66 58/1/65 61/1/66
f 58/1/68 60/1/67 62/1/67
f 63/1/69 59/1/66 61/1/66
f 60/1/67 64/1/70 62/1/67
f 63/1/71 61/1/66 65/1/69
f 66/1/70 64/1/70 60/1/67
f 67/1/72 63/1/72 65/1/72
f 66/1/73 68/1/74 64/1/73
f 63/1/72 67/1/72 69/1/75
f 70/1/76 68/1/76 66/1/73
f 69/1/69 67/1/77 71/1/78
f 70/1/79 72/1/80 68/1/79
f 71/1/78 73/1/78 69/1/69
f 74/1/80 72/1/80 70/1/81
f 75/1/82 73/1/78 71/1/78
f 76/1/83 72/1/84 74/1/84
f 73/1/78 75/1/82 77/1/82
f 77/1/82 75/1/82 76/1/83
f 72/1/84 76/1/83 78/1/83
f 76/1/83 75/1/82 78/1/83
f 79/1/85 80/1/85 81/1/85
f 80/1/85 79/1/85 82/1/85
f 83/1/86 84/1/86 85/1/86
f 83/1/86 86/1/86 84/1/86
f 87/1/87 88/1/87 89/1/87
f 90/1/88 89/1/88 88/1/88
f 91/1/89 92/1/89 93/1/90
f 94/1/91 92/1/89 91/1/89
f 93/1/92 92/1/93 95/1/90
f 92/1/89 94/1/94 96/1/94
f 93/1/95 95/1/96 97/1/97
f 94/1/91 98/1/98 96/1/94
f 99/1/97 93/1/95 97/1/97
f 100/1/98 96/1/94 98/1/98
f 101/1/99 99/1/97 97/1/97
f 101/1/100 100/1/98 98/1/101
f 101/1/99 97/1/97 102/1/99
f 100/1/98 101/1/100 102/1/100
f 103/1/102 104/1/102 105/1/102
f 104/1/102 103/1/102 106/1/102
f 107/1/103 108/1/103 109/1/103
f 107/1/104 109/1/104 110/1/104
f 111/1/105 112/1/105 113/1/105
f 111/1/106 114/1/107 112/1/105
f 113/1/105 112/1/106 115/1/105
f 116/1/108 113/1/105 115/1/105
f 113/1/105 116/1/108 117/1/108
f 114/1/107 118/1/109 112/1/105
f 118/1/110 114/1/111 119/1/110
f 119/1/110 120/1/110 118/1/110
f 119/1/107 121/1/108 120/1/107
f 122/1/108 120/1/107 121/1/108
f 123/1/112 124/1/113 125/1/113
f 125/1/113 126/1/114 123/1/112
f 126/1/115 127/1/116 123/1/112
f 127/1/117 126/1/115 128/1/118
f 129/1/119 127/1/120 128/1/121
f 127/1/120 129/1/119 130/1/122
f 131/1/123 130/1/124 129/1/125
f 130/1/122 131/1/123 132/1/126
f 131/1/127 133/1/128 132/1/129
f 131/1/127 134/1/130 133/1/130
f 135/1/131 136/1/132 137/1/132
f 136/1/132 135/1/131 138/1/133
f 139/1/134 138/1/135 135/1/131
f 138/1/136 139/1/134 140/1/137
f 141/1/138 140/1/139 139/1/140
f 141/1/141 139/1/140 142/1/142
f 143/1/143 141/1/144 142/1/145
f 142/1/145 144/1/146 143/1/143
f 145/1/147 143/1/148 144/1/149
f 143/1/148 145/1/150 146/1/150
f 147/1/151 148/1/151 149/1/151
f 150/1/151 147/1/151 149/1/151
f 147/1/151 150/1/151 151/1/151
f 150/1/151 152/1/151 151/1/151
f 151/1/151 152/1/151 153/1/151
f 152/1/151 150/1/151 154/1/151
f 155/1/43 156/1/43 157/1/43
f 156/1/43 155/1/43 158/1/43
f 155/1/43 157/1/43 159/1/43
f 157/1/43 160/1/43 159/1/43
f 157/1/43 161/1/43 160/1/43
f 162/1/43 161/1/43 157/1/43
f 162/1/43 163/1/43 161/1/43
f 164/1/43 163/1/43 162/1/43
f 163/1/43 164/1/43 165/1/43
f 166/1/17 167/1/17 168/1/17
f 167/1/17 169/1/17 168/1/17
f 169/1/17 170/1/17 168/1/17
f 170/1/17 169/1/17 171/1/17
f 167/1/17 166/1/17 172/1/17
f 166/1/17 173/1/17 172/1/17
f 173/1/17 166/1/17 174/1/17
f 174/1/17 166/1/17 175/1/17
f 174/1/17 175/1/17 176/1/17
f 177/1/152 178/1/153 179/1/153
f 180/1/154 179/1/153 178/1/155
f 178/1/153 177/1/152 181/1/156
f 180/1/157 178/1/153 182/1/158
f 183/1/159 181/1/160 177/1/160
f 184/1/161 180/1/157 182/1/157
f 181/1/160 183/1/159 185/1/159
f 180/1/157 184/1/161 186/1/161
f 183/1/162 187/1/163 185/1/162
f 188/1/164 186/1/165 184/1/165
f 183/1/162 189/1/163 187/1/163
f 184/1/166 190/1/167 188/1/167
f 189/1/163 191/1/168 187/1/163
f 192/1/169 188/1/169 190/1/169
f 191/1/168 189/1/163 193/1/170
f 188/1/169 192/1/169 194/1/169
f 193/1/171 195/1/172 191/1/171
f 196/1/173 194/1/167 192/1/164
f 193/1/171 197/1/174 195/1/172
f 194/1/164 196/1/175 198/1/175
f 198/1/173 195/1/176 197/1/176
f 195/1/177 198/1/173 196/1/173
f 199/1/178 200/1/179 201/1/179
f 202/1/180 201/1/179 200/1/179
f 199/1/178 201/1/179 203/1/178
f 201/1/179 202/1/181 204/1/181
f 203/1/182 205/1/183 199/1/182
f 202/1/184 206/1/185 204/1/184
f 205/1/183 203/1/182 207/1/183
f 202/1/180 208/1/185 206/1/185
f 209/1/186 205/1/187 207/1/187
f 210/1/188 206/1/189 208/1/189
f 205/1/187 209/1/186 211/1/186
f 206/1/189 210/1/188 212/1/190
f 213/1/191 211/1/186 209/1/186
f 214/1/192 212/1/192 210/1/192
f 211/1/186 213/1/193 215/1/193
f 210/1/192 216/1/192 214/1/192
f 217/1/194 215/1/195 213/1/195
f 216/1/190 218/1/196 214/1/190
f 215/1/195 217/1/194 219/1/194
f 216/1/190 220/1/197 218/1/198
f 220/1/198 219/1/199 217/1/200
f 220/1/198 217/1/199 218/1/198
f 221/1/201 222/1/201 223/1/201
f 221/1/201 223/1/201 224/1/201
f 222/1/201 221/1/201 225/1/201
f 226/1/201 222/1/201 225/1/201
f 222/1/201 226/1/201 227/1/201
f 228/1/201 221/1/201 224/1/201
f 224/1/201 229/1/201 228/1/201
f 229/1/201 230/1/201 228/1/201
f 230/1/201 229/1/201 231/1/201
f 231/1/201 229/1/201 232/1/201
f 233/1/201 231/1/201 232/1/201
f 232/1/201 234/1/201 233/1/201
f 235/1/202 236/1/202 237/1/202
f 237/1/202 236/1/202 238/1/202
f 237/1/202 239/1/202 235/1/202
f 240/1/202 237/1/202 238/1/202
f 238/1/202 241/1/202 240/1/202
f 238/1/202 242/1/202 241/1/202
f 239/1/202 243/1/202 235/1/202
f 244/1/202 243/1/202 239/1/202
f 245/1/202 243/1/202 244/1/202
f 243/1/202 245/1/202 246/1/202
f 245/1/202 247/1/202 246/1/202
f 246/1/202 247/1/202 248/1/202
f 249/1/43 250/1/43 251/1/43
f 250/1/43 252/1/43 251/1/43
f 252/1/43 250/1/43 253/1/43
f 254/1/43 249/1/43 251/1/43
f 249/1/43 254/1/43 255/1/43
f 254/1/43 256/1/43 255/1/43
f 256/1/43 254/1/43 257/1/43
f 258/1/17 259/1/17 260/1/17
f 261/1/17 259/1/17 258/1/17
f 259/1/17 261/1/17 262/1/17
f 260/1/17 259/1/17 263/1/17
f 264/1/17 260/1/17 263/1/17
f 263/1/17 265/1/17 264/1/17
f 264/1/17 265/1/17 266/1/17
f 267/1/203 268/1/204 269/1/205
f 270/1/206 269/1/205 268/1/207
f 267/1/203 269/1/205 271/1/208
f 269/1/205 270/1/206 272/1/209
f 273/1/210 267/1/211 271/1/212
f 274/1/213 272/1/214 270/1/206
f 271/1/212 275/1/215 273/1/210
f 272/1/214 274/1/213 276/1/216
f 277/1/217 273/1/210 275/1/215
f 278/1/218 276/1/219 274/1/220
f 275/1/215 279/1/221 277/1/222
f 276/1/219 278/1/218 280/1/223
f 281/1/224 277/1/225 279/1/226
f 278/1/227 282/1/228 280/1/229
f 277/1/225 281/1/224 283/1/230
f 282/1/231 283/1/230 281/1/232
f 278/1/227 284/1/233 282/1/228
f 283/1/230 282/1/234 284/1/235
f 285/1/236 286/1/236 287/1/236
f 287/1/236 288/1/236 285/1/236
f 289/1/237 290/1/238 291/1/239
f 290/1/240 289/1/237 292/1/241
f 293/1/242 291/1/243 290/1/238
f 294/1/244 292/1/241 289/1/237
f 291/1/239 293/1/245 295/1/246
f 292/1/241 294/1/244 296/1/247
f 293/1/242 297/1/248 295/1/249
f 298/1/250 296/1/251 294/1/252
f 297/1/253 293/1/242 299/1/254
f 298/1/250 294/1/252 300/1/255
f 301/1/256 297/1/248 299/1/257
f 300/1/255 302/1/258 298/1/259
f 301/1/256 299/1/260 303/1/261
f 302/1/258 300/1/255 304/1/262
f 305/1/263 301/1/264 303/1/265
f 305/1/266 302/1/267 304/1/268
f 305/1/266 303/1/265 306/1/269
f 302/1/267 305/1/266 306/1/270
f 307/1/271 308/1/271 309/1/271
f 308/1/271 307/1/271 310/1/271
f 311/1/17 312/1/17 313/1/17
f 314/1/17 312/1/17 311/1/17
f 312/1/17 314/1/17 315/1/17
f 313/1/17 312/1/17 316/1/17
f 317/1/17 313/1/17 316/1/17
f 318/1/17 317/1/17 316/1/17
f 317/1/17 318/1/17 319/1/17
f 320/1/43 321/1/43 322/1/43
f 323/1/43 322/1/43 321/1/43
f 322/1/43 323/1/43 324/1/43
f 324/1/43 323/1/43 325/1/43
f 326/1/17 327/1/17 328/1/17
f 327/1/17 326/1/17 329/1/17
f 328/1/17 327/1/17 330/1/17
f 331/1/17 328/1/17 330/1/17
f 332/1/27 333/1/27 334/1/27
f 333/1/27 335/1/27 334/1/27
f 336/1/272 337/1/273 338/1/274
f 339/1/275 338/1/274 337/1/273
f 337/1/273 336/1/272 340/1/276
f 337/1/277 341/1/278 339/1/279
f 342/1/280 340/1/276 336/1/281
f 343/1/282 339/1/283 341/1/284
f 340/1/276 342/1/280 344/1/285
f 339/1/283 343/1/286 345/1/286
f 342/1/287 346/1/288 344/1/289
f 346/1/288 345/1/290 343/1/286
f 342/1/291 347/1/288 346/1/288
f 345/1/292 346/1/288 347/1/288
f 348/1/293 349/1/294 350/1/295
f 351/1/296 350/1/297 349/1/298
f 348/1/299 350/1/297 352/1/300
f 350/1/297 351/1/301 353/1/302
f 354/1/303 348/1/304 352/1/305
f 351/1/306 355/1/307 353/1/308
f 352/1/305 356/1/309 354/1/303
f 351/1/306 357/1/307 355/1/307
f 358/1/310 354/1/311 356/1/312
f 357/1/307 358/1/310 355/1/307
f 354/1/311 358/1/310 359/1/310
f 357/1/307 359/1/310 358/1/310
f 360/1/313 361/1/314 362/1/315
f 361/1/314 360/1/313 363/1/313
f 364/1/316 362/1/317 361/1/318
f 361/1/318 365/1/319 364/1/316
f 366/1/320 364/1/316 365/1/321
f 364/1/316 366/1/320 367/1/322
f 368/1/323 367/1/324 366/1/325
f 366/1/320 369/1/326 368/1/323
f 370/1/327 368/1/323 369/1/328
f 368/1/323 370/1/329 371/1/329
f 372/1/330 371/1/329 370/1/329
f 370/1/331 373/1/330 372/1/330
f 374/1/332 375/1/333 376/1/333
f 376/1/333 377/1/334 374/1/335
f 378/1/336 374/1/337 377/1/338
f 374/1/339 378/1/336 379/1/340
f 380/1/341 379/1/342 378/1/336
f 378/1/336 381/1/343 380/1/341
f 382/1/344 380/1/341 381/1/345
f 380/1/341 382/1/344 383/1/346
f 384/1/347 383/1/348 382/1/344
f 382/1/344 385/1/349 384/1/349
f 386/1/350 384/1/351 385/1/351
f 384/1/349 386/1/350 387/1/350
f 388/1/43 389/1/43 390/1/43
f 389/1/43 388/1/43 391/1/43
f 390/1/43 389/1/43 392/1/43
f 393/1/43 390/1/43 392/1/43
f 392/1/43 394/1/43 393/1/43
f 395/1/43 394/1/43 392/1/43
f 393/1/43 394/1/43 396/1/43
f 397/1/43 393/1/43 396/1/43
f 396/1/43 398/1/43 397/1/43
f 394/1/43 395/1/43 399/1/43
f 395/1/43 400/1/43 399/1/43
f 400/1/43 395/1/43 401/1/43
f 402/1/17 403/1/17 404/1/17
f 403/1/17 402/1/17 405/1/17
f 405/1/17 406/1/17 403/1/17
f 406/1/17 405/1/17 407/1/17
f 402/1/17 404/1/17 408/1/17
f 408/1/17 409/1/17 402/1/17
f 410/1/17 409/1/17 408/1/17
f 409/1/17 410/1/17 411/1/17
f 408/1/17 404/1/17 412/1/17
f 413/1/17 412/1/17 404/1/17
f 414/1/17 412/1/17 413/1/17
f 414/1/17 413/1/17 415/1/17
f 416/1/352 417/1/352 418/1/353
f 417/1/353 416/1/353 419/1/354
f 418/1/353 420/1/355 416/1/353
f 418/1/355 421/1/27 420/1/353
f 421/1/27 422/1/27 420/1/353
f 423/1/356 417/1/353 419/1/354
f 423/1/357 419/1/358 424/1/357
f 424/1/357 425/1/357 423/1/357
f 424/1/354 426/1/359 425/1/354
f 427/1/360 425/1/354 426/1/359
f 427/1/359 426/1/360 428/1/361
f 429/1/362 427/1/359 428/1/362
f 430/1/151 431/1/363 432/1/364
f 431/1/363 430/1/151 433/1/151
f 432/1/363 431/1/363 434/1/365
f 434/1/27 431/1/364 435/1/27
f 434/1/27 435/1/27 436/1/366
f 436/1/367 435/1/365 437/1/367
f 436/1/367 437/1/366 438/1/1
f 439/1/1 436/1/367 438/1/1
f 440/1/27 441/1/27 442/1/27
f 442/1/27 441/1/27 443/1/27
f 444/1/27 445/1/27 446/1/27
f 446/1/27 445/1/27 447/1/27
f 448/1/27 449/1/27 450/1/27
f 449/1/27 448/1/27 451/1/27
f 452/1/368 453/1/369 454/1/370
f 455/1/371 452/1/372 454/1/372
f 453/1/369 456/1/369 454/1/368
f 455/1/371 454/1/372 457/1/371
f 453/1/369 458/1/373 456/1/369
f 457/1/374 459/1/375 455/1/374
f 458/1/373 460/1/376 456/1/369
f 461/1/377 455/1/374 459/1/375
f 458/1/376 462/1/378 460/1/373
f 463/1/379 461/1/380 459/1/380
f 462/1/378 464/1/381 460/1/373
f 463/1/382 459/1/380 465/1/379
f 462/1/383 466/1/384 464/1/385
f 467/1/386 463/1/382 465/1/379
f 466/1/384 468/1/384 464/1/385
f 463/1/379 467/1/386 469/1/386
f 468/1/384 466/1/384 469/1/387
f 469/1/387 467/1/387 468/1/384
f 470/1/43 471/1/32 472/1/43
f 471/1/32 470/1/43 473/1/32
f 472/1/43 474/1/48 470/1/43
f 473/1/32 475/1/27 471/1/32
f 474/1/48 472/1/43 476/1/48
f 475/1/27 473/1/32 477/1/27
f 474/1/48 476/1/48 478/1/108
f 477/1/27 479/1/21 475/1/27
f 480/1/108 478/1/108 476/1/48
f 479/1/21 477/1/27 481/1/21
f 478/1/108 480/1/108 482/1/46
f 483/1/17 479/1/21 481/1/21
f 484/1/46 482/1/46 480/1/108
f 479/1/21 483/1/17 485/1/17
f 485/1/17 482/1/46 484/1/46
f 482/1/46 485/1/17 483/1/17
f 486/1/151 487/1/151 488/1/151
f 487/1/151 486/1/151 489/1/151
f 490/1/151 491/1/363 492/1/364
f 491/1/363 490/1/151 493/1/151
f 492/1/388 491/1/388 494/1/365
f 494/1/27 491/1/389 495/1/27
f 494/1/27 495/1/27 496/1/366
f 496/1/367 495/1/365 497/1/367
f 496/1/367 497/1/366 498/1/1
f 499/1/1 496/1/367 498/1/1
